#N canvas 121 146 481 476 12;
#X obj 107 293 >;
#X obj 174 293 <;
#X obj 174 317 sel 1;
#X obj 107 317 sel 1;
#X obj 181 191 t f f;
#X obj 174 269 spigot;
#X obj 107 269 spigot 1;
#X msg 107 341 1;
#X msg 174 341 0;
#X obj 174 382 t f f;
#X obj 107 221 t f f;
#X obj 107 51 inlet value;
#X obj 195 51 inlet hithresh;
#X obj 303 51 inlet lothresh;
#X obj 174 406 outlet;
#X obj 160 221 == 0;
#X obj 307 293 t f;
#X connect 0 0 3 0;
#X connect 1 0 2 0;
#X connect 2 0 8 0;
#X connect 3 0 7 0;
#X connect 4 0 15 0;
#X connect 4 1 5 1;
#X connect 5 0 1 0;
#X connect 6 0 0 0;
#X connect 7 0 9 0;
#X connect 8 0 9 0;
#X connect 9 0 14 0;
#X connect 9 1 16 0;
#X connect 10 0 6 0;
#X connect 10 1 5 0;
#X connect 11 0 10 0;
#X connect 12 0 0 1;
#X connect 13 0 1 1;
#X connect 15 0 6 1;
#X connect 16 0 4 0;
