#N canvas 327 136 681 539 12;
#X text 65 165 to faders >;
#X text 295 202 < from faders;
#X text 58 312 to outputs >;
#X text 215 57 < stereo input;
#N canvas 315 263 867 541 serialization 0;
#X obj 100 121 loadbang;
#X obj 268 47 route serialize;
#X obj 268 100 r \$0-outputmatrix-o;
#X obj 268 125 route serialize;
#X obj 268 151 s \$0-outputmatrix-serialized;
#X obj 381 125 s \$1-outputmatrix-o;
#X obj 268 22 r \$0-inputmatrix-o;
#X obj 381 47 s \$1-inputmatrix-o;
#X obj 268 73 s \$0-inputmatrix-serialized;
#X obj 568 246 s \$0-inputmatrix-i;
#X obj 166 213 r \$0-inputmatrix-request-serialization;
#X msg 167 235 serialize;
#X obj 138 264 s \$0-inputmatrix-i;
#X obj 69 161 r \$0-clear;
#X msg 161 310 serialize;
#X obj 160 288 r \$0-outputmatrix-request-serialization;
#X obj 132 339 s \$0-outputmatrix-i;
#X msg 78 195 clear;
#X obj 585 41 r \$0-inputmatrix-to-deserialize;
#X obj 583 68 t b a;
#X obj 561 105 t b b b;
#X msg 554 132 dump;
#X msg 638 132 clear;
#X obj 606 170 list;
#X obj 564 167 t a;
#X obj 606 195 list prepend deserialize;
#X obj 607 217 list trim;
#X obj 524 319 t b a;
#X obj 502 356 t b b b;
#X msg 495 383 dump;
#X msg 579 383 clear;
#X obj 547 421 list;
#X obj 505 418 t a;
#X obj 547 446 list prepend deserialize;
#X obj 548 468 list trim;
#X obj 526 292 r \$0-outputmatrix-to-deserialize;
#X obj 509 497 s \$0-outputmatrix-i;
#X connect 0 0 17 0;
#X connect 1 0 8 0;
#X connect 1 1 7 0;
#X connect 2 0 3 0;
#X connect 3 0 4 0;
#X connect 3 1 5 0;
#X connect 6 0 1 0;
#X connect 10 0 11 0;
#X connect 11 0 12 0;
#X connect 13 0 17 0;
#X connect 14 0 16 0;
#X connect 15 0 14 0;
#X connect 17 0 12 0;
#X connect 17 0 16 0;
#X connect 18 0 19 0;
#X connect 19 0 20 0;
#X connect 19 1 23 1;
#X connect 20 0 21 0;
#X connect 20 1 23 0;
#X connect 20 2 22 0;
#X connect 21 0 24 0;
#X connect 22 0 24 0;
#X connect 23 0 25 0;
#X connect 24 0 9 0;
#X connect 25 0 26 0;
#X connect 26 0 9 0;
#X connect 27 0 28 0;
#X connect 27 1 31 1;
#X connect 28 0 29 0;
#X connect 28 1 31 0;
#X connect 28 2 30 0;
#X connect 29 0 32 0;
#X connect 30 0 32 0;
#X connect 31 0 33 0;
#X connect 32 0 36 0;
#X connect 33 0 34 0;
#X connect 34 0 36 0;
#X connect 35 0 27 0;
#X restore 51 382 pd serialization;
#N canvas 852 389 529 319 preset 0;
#X obj 55 34 r \$0-preset-cmd;
#N canvas 615 168 825 704 preset-get-set-delete 0;
#X obj 330 391 sel -1;
#X obj 273 299 t a a;
#X obj 166 551 spigot;
#X obj 253 531 == 0;
#X obj 226 511 t f f;
#X obj 220 551 spigot;
#X obj 166 511 t a a;
#X obj 363 411 t b f;
#X msg 330 411 1;
#X msg 338 434 0;
#X obj 26 209 sel -1;
#X obj 74 29 inlet;
#X obj 224 184 sel -1;
#X obj 93 658 outlet get;
#X obj 502 654 outlet getvalues;
#X obj 592 26 inlet getvalues;
#X obj 208 354 t b a;
#X obj 166 452 list prepend;
#X obj 166 394 t b b;
#X obj 166 432 list;
#X obj 330 455 t f;
#X obj 74 56 route get set delete;
#X obj 224 144 list split 3;
#X obj 330 351 list split 3;
#X obj 26 169 list split 3;
#X obj 59 249 list split 3;
#X obj 224 124 list append outputmatrix;
#X obj 26 149 list append outputmatrix;
#X obj 273 279 list append outputmatrix;
#X obj 224 164 text search \$1-presets 0 1 2;
#X obj 257 204 text delete \$1-presets;
#X obj 26 189 text search \$1-presets 0 1 2;
#X obj 59 229 text get \$1-presets;
#X obj 330 371 text search \$1-presets 0 1 2;
#X obj 236 579 text set \$1-presets;
#X obj 206 600 text insert \$1-presets 0;
#X connect 0 0 8 0;
#X connect 0 1 7 0;
#X connect 1 0 16 0;
#X connect 1 1 23 0;
#X connect 2 0 35 0;
#X connect 3 0 5 1;
#X connect 4 0 2 1;
#X connect 4 1 3 0;
#X connect 5 0 34 0;
#X connect 6 0 2 0;
#X connect 6 1 5 0;
#X connect 7 0 9 0;
#X connect 7 1 34 1;
#X connect 8 0 20 0;
#X connect 9 0 20 0;
#X connect 10 1 32 0;
#X connect 11 0 21 0;
#X connect 12 1 30 0;
#X connect 15 0 19 1;
#X connect 16 0 18 0;
#X connect 16 1 17 1;
#X connect 17 0 6 0;
#X connect 18 0 19 0;
#X connect 18 1 14 0;
#X connect 19 0 17 0;
#X connect 20 0 4 0;
#X connect 21 0 27 0;
#X connect 21 1 28 0;
#X connect 21 2 26 0;
#X connect 22 0 29 0;
#X connect 23 0 33 0;
#X connect 24 0 31 0;
#X connect 25 1 13 0;
#X connect 26 0 22 0;
#X connect 27 0 24 0;
#X connect 28 0 1 0;
#X connect 29 0 12 0;
#X connect 31 0 10 0;
#X connect 32 0 25 0;
#X connect 33 0 0 0;
#X restore 55 58 pd preset-get-set-delete;
#X obj 220 85 s \$0-outputmatrix-request-serialization;
#X obj 55 110 s \$0-outputmatrix-to-deserialize;
#X obj 220 34 r \$0-outputmatrix-serialized;
#X obj 56 155 r \$0-preset-cmd;
#N canvas 615 168 825 704 preset-get-set-delete 0;
#X obj 330 391 sel -1;
#X obj 273 299 t a a;
#X obj 166 551 spigot;
#X obj 253 531 == 0;
#X obj 226 511 t f f;
#X obj 220 551 spigot;
#X obj 166 511 t a a;
#X obj 363 411 t b f;
#X msg 330 411 1;
#X msg 338 434 0;
#X obj 26 209 sel -1;
#X obj 74 29 inlet;
#X obj 224 184 sel -1;
#X obj 93 658 outlet get;
#X obj 502 654 outlet getvalues;
#X obj 592 26 inlet getvalues;
#X obj 208 354 t b a;
#X obj 166 452 list prepend;
#X obj 166 394 t b b;
#X obj 166 432 list;
#X obj 330 455 t f;
#X obj 74 56 route get set delete;
#X obj 224 144 list split 3;
#X obj 330 351 list split 3;
#X obj 26 169 list split 3;
#X obj 59 249 list split 3;
#X obj 224 124 list append inputmatrix;
#X obj 26 149 list append inputmatrix;
#X obj 273 279 list append inputmatrix;
#X obj 224 164 text search \$1-presets 0 1 2;
#X obj 26 189 text search \$1-presets 0 1 2;
#X obj 257 204 text delete \$1-presets;
#X obj 59 229 text get \$1-presets;
#X obj 330 371 text search \$1-presets 0 1 2;
#X obj 236 579 text set \$1-presets;
#X obj 206 600 text insert \$1-presets 0;
#X connect 0 0 8 0;
#X connect 0 1 7 0;
#X connect 1 0 16 0;
#X connect 1 1 23 0;
#X connect 2 0 35 0;
#X connect 3 0 5 1;
#X connect 4 0 2 1;
#X connect 4 1 3 0;
#X connect 5 0 34 0;
#X connect 6 0 2 0;
#X connect 6 1 5 0;
#X connect 7 0 9 0;
#X connect 7 1 34 1;
#X connect 8 0 20 0;
#X connect 9 0 20 0;
#X connect 10 1 32 0;
#X connect 11 0 21 0;
#X connect 12 1 31 0;
#X connect 15 0 19 1;
#X connect 16 0 18 0;
#X connect 16 1 17 1;
#X connect 17 0 6 0;
#X connect 18 0 19 0;
#X connect 18 1 14 0;
#X connect 19 0 17 0;
#X connect 20 0 4 0;
#X connect 21 0 27 0;
#X connect 21 1 28 0;
#X connect 21 2 26 0;
#X connect 22 0 29 0;
#X connect 23 0 33 0;
#X connect 24 0 30 0;
#X connect 25 1 13 0;
#X connect 26 0 22 0;
#X connect 27 0 24 0;
#X connect 28 0 1 0;
#X connect 29 0 12 0;
#X connect 30 0 10 0;
#X connect 32 0 25 0;
#X connect 33 0 0 0;
#X restore 56 179 pd preset-get-set-delete;
#X obj 221 155 r \$0-inputmatrix-serialized;
#X obj 221 206 s \$0-inputmatrix-request-serialization;
#X obj 56 231 s \$0-inputmatrix-to-deserialize;
#X connect 0 0 1 0;
#X connect 1 0 3 0;
#X connect 1 1 2 0;
#X connect 4 0 1 1;
#X connect 5 0 6 0;
#X connect 6 0 9 0;
#X connect 6 1 8 0;
#X connect 7 0 6 1;
#X restore 51 404 pd preset;
#X obj 151 57 jl/routerctrl-ui \$0-inputmatrix 0 2 6 20;
#X obj 151 202 jl/routerctrl-ui \$0-outputmatrix 0 6 6 20;
#X obj 50 358 project/module-preset \$1 \$2 \$0;
#X obj 287 107 bng 19 250 50 0 \$0-clear empty clear 0 -10 0 12 #fcfcfc #000000 #000000;
#X coords 0 -1 1 1 350 300 2 50 50;
