#N canvas 180 264 754 497 12;
#X obj 258 161 2-thresh-switch;
#X obj 31 31 cnv 19 165 176 empty empty empty 20 12 0 12 #e0e0e0 #404040 0;
#X floatatom 122 69 10 0 0 0 hi\ thresh \$4-hithresh-\$1-i \$4-hithresh-\$1-o 0;
#X floatatom 122 90 10 0 0 0 lo\ thresh \$4-lothresh-\$1-i \$4-lothresh-\$1-o 0;
#X obj 125 51 hsl 67 15 -10 10 0 0 nowhere \$0-input-value empty -2 -10 0 12 #fcfcfc #000000 #000000 0 0;
#X floatatom 122 33 10 0 0 0 input\ value \$0-input-value nowhere 0;
#X obj 122 133 tgl 72 0 nowhere \$0-output-value output\ value -87 33 0 12 #fcfcfc #000000 #000000 0 1;
#X obj 331 331 s \$0-output-value;
#X obj 33 182 cnv 22 22 22 empty empty \$1 1 14 0 16 #e0e0e0 #404040 0;
#X obj 299 385 pack \$1 f;
#X obj 299 360 t b f;
#X obj 175 111 tgl 19 0 \$4-enable-output-\$1-o \$4-enable-output-\$1-i enable\ output -93 9 0 12 #fcfcfc #000000 #000000 0 1;
#X obj 299 304 t f f;
#X obj 258 209 spigot;
#X obj 321 209 t f f;
#X obj 321 233 sel 0;
#X msg 321 256 0;
#X text 256 32 args: sensor id \, module name \, project name \, parent \$0;
#X obj 382 355 project/parameter-simple hithresh-\$1 \$2 \$3 \$4;
#X obj 382 378 project/parameter-simple lothresh-\$1 \$2 \$3 \$4;
#X obj 382 401 project/parameter-simple enable-output-\$1 \$2 \$3 \$4;
#X obj 309 117 r \$4-hithresh-\$1-o;
#X obj 360 139 r \$4-lothresh-\$1-o;
#X obj 321 186 r \$4-enable-output-\$1-o;
#X obj 299 409 s \$2-out;
#X obj 258 64 r \$4-capacitive-sensor-\$1-in;
#N canvas 192 192 577 491 onepole 0;
#X obj 187 278 f;
#X obj 127 277 +;
#X obj 187 322 *;
#X obj 127 90 t f b, f 9;
#X obj 145 139 expr 1-$f1;
#X obj 252 89 t f f;
#X obj 127 420 outlet;
#X obj 61 30 inlet;
#X obj 252 55 inlet;
#X obj 127 166 * 1;
#X obj 87 60 t f f;
#X obj 87 376 -;
#X obj 180 420 outlet;
#X text 255 340 y[n] = x[n] * a - y[n-1] * (1 - a);
#X text 254 381 rightmost :;
#X text 256 405 value = x[n] - y[n] (cheap highpass);
#X text 254 315 leftmost :;
#X obj 127 322 t f f f;
#X connect 0 0 2 0;
#X connect 1 0 17 0;
#X connect 2 0 1 1;
#X connect 3 0 9 0;
#X connect 3 1 0 0;
#X connect 4 0 9 1;
#X connect 5 0 4 0;
#X connect 5 1 2 1;
#X connect 7 0 10 0;
#X connect 8 0 5 0;
#X connect 9 0 1 0;
#X connect 10 0 11 0;
#X connect 10 1 3 0;
#X connect 11 0 12 0;
#X connect 17 0 6 0;
#X connect 17 1 11 1;
#X connect 17 2 0 1;
#X restore 541 174 pd onepole;
#X floatatom 622 143 5 0 0 0 - - - 0;
#X obj 622 92 loadbang;
#X obj 304 87 s \$0-input-value;
#N canvas 192 192 577 491 onepole 0;
#X obj 187 278 f;
#X obj 127 277 +;
#X obj 187 322 *;
#X obj 127 90 t f b, f 9;
#X obj 145 139 expr 1-$f1;
#X obj 252 89 t f f;
#X obj 127 420 outlet;
#X obj 61 30 inlet;
#X obj 252 55 inlet;
#X obj 127 166 * 1;
#X obj 87 60 t f f;
#X obj 87 376 -;
#X obj 180 420 outlet;
#X text 255 340 y[n] = x[n] * a - y[n-1] * (1 - a);
#X text 254 381 rightmost :;
#X text 256 405 value = x[n] - y[n] (cheap highpass);
#X text 254 315 leftmost :;
#X obj 127 322 t f f f;
#X connect 0 0 2 0;
#X connect 1 0 17 0;
#X connect 2 0 1 1;
#X connect 3 0 9 0;
#X connect 3 1 0 0;
#X connect 4 0 9 1;
#X connect 5 0 4 0;
#X connect 5 1 2 1;
#X connect 7 0 10 0;
#X connect 8 0 5 0;
#X connect 9 0 1 0;
#X connect 10 0 11 0;
#X connect 10 1 3 0;
#X connect 11 0 12 0;
#X connect 17 0 6 0;
#X connect 17 1 11 1;
#X connect 17 2 0 1;
#X restore 451 291 pd onepole;
#X floatatom 532 260 5 0 0 0 - - - 0;
#X obj 532 209 loadbang;
#X msg 622 118 0.98;
#X msg 532 235 0.85;
#X connect 0 0 13 0;
#X connect 9 0 24 0;
#X connect 10 0 9 0;
#X connect 10 1 9 1;
#X connect 12 0 10 0;
#X connect 12 1 7 0;
#X connect 13 0 12 0;
#X connect 14 0 15 0;
#X connect 14 1 13 1;
#X connect 15 0 16 0;
#X connect 16 0 12 0;
#X connect 21 0 0 1;
#X connect 22 0 0 2;
#X connect 23 0 14 0;
#X connect 25 0 26 0;
#X connect 26 1 0 0;
#X connect 26 1 29 0;
#X connect 26 1 30 0;
#X connect 27 0 26 1;
#X connect 28 0 33 0;
#X connect 30 0 29 0;
#X connect 30 0 0 0;
#X connect 31 0 30 1;
#X connect 32 0 34 0;
#X connect 33 0 27 0;
#X connect 34 0 31 0;
#X coords 0 -1 1 1 167 178 2 30 30;
