#N canvas 63 88 568 300 10;
#X obj 200 50 bendin;
#X obj 245 80 - 0;
#X text 274 80 substract 16 * MIDI port offset;
#X msg 245 104 set \$1;
#X obj 210 149 oscformat;
#X obj 216 194 netsend -u -b;
#X msg 346 118 connect localhost 9000;
#X msg 346 136 connect 192.168.43.117 9000;
#X msg 361 161 disconnect;
#X obj 347 222 netreceive -u -b 9000;
#X obj 347 242 oscparse;
#X obj 347 262 print;
#X connect 0 0 4 0;
#X connect 0 1 1 0;
#X connect 1 0 3 0;
#X connect 3 0 4 0;
#X connect 4 0 5 0;
#X connect 6 0 5 0;
#X connect 7 0 5 0;
#X connect 8 0 5 0;
#X connect 9 0 10 0;
#X connect 10 0 11 0;
