#N canvas 221 58 1219 814 12;
#X obj 760 106 r teensy-capacitive-sensors;
#X obj 760 152 unpack f f;
#X obj 802 201 send;
#X msg 760 129 \$2 \$1;
#X obj 951 278 route 1 2 3 4;
#X obj 32 32 capa-preprocessing-module 1 \$1 \$2 \$0;
#X obj 199 32 capa-preprocessing-module 2 \$1 \$2 \$0;
#X obj 827 175 makefilename \$0-capacitive-sensor-%d-in;
#X obj 366 32 capa-preprocessing-module 3 \$1 \$2 \$0;
#X obj 951 254 r \$2-out;
#X obj 533 32 capa-preprocessing-module 4 \$1 \$2 \$0;
#X obj 32 210 capa-preprocessing-module 5 \$1 \$2 \$0;
#X obj 199 210 capa-preprocessing-module 6 \$1 \$2 \$0;
#X obj 366 210 capa-preprocessing-module 7 \$1 \$2 \$0;
#X obj 533 210 capa-preprocessing-module 8 \$1 \$2 \$0;
#X obj 32 388 capa-preprocessing-module 9 \$1 \$2 \$0;
#X obj 199 388 capa-preprocessing-module 10 \$1 \$2 \$0;
#X obj 366 388 capa-preprocessing-module 11 \$1 \$2 \$0;
#X obj 760 61 project/module-preset \$1 \$2 \$0;
#X text 759 37 args : module name \, project name;
#X text 765 265 get output values from :;
#X floatatom 617 467 10 0 0 0 hi\ thresh from-nowhere \$0-master-hithresh-o 0;
#X floatatom 617 488 10 0 0 0 lo\ thresh from-nowhere \$0-master-lothresh-o 0;
#X obj 670 509 tgl 19 0 \$0-master-enable-output-o from-nowhere enable\ output -93 9 0 12 #fcfcfc #000000 #000000 0 1;
#X text 570 420 master controls;
#N canvas 899 314 425 410 master-controls 0;
#N canvas 63 413 423 339 broadcast-hithresh 0;
#X obj 122 291 send;
#X obj 152 167 until;
#X msg 152 143 11;
#X obj 160 110 t b b;
#X msg 217 157 1;
#X obj 173 240 f;
#X obj 203 240 + 1;
#X obj 173 264 makefilename \$0-hithresh-%d-i;
#X obj 113 252 f;
#X obj 80 54 t b f;
#X obj 80 31 inlet;
#X obj 120 196 t b b;
#X connect 1 0 11 0;
#X connect 2 0 1 0;
#X connect 3 0 2 0;
#X connect 3 1 4 0;
#X connect 4 0 5 1;
#X connect 5 0 6 0;
#X connect 5 0 7 0;
#X connect 6 0 5 1;
#X connect 7 0 0 1;
#X connect 8 0 0 0;
#X connect 9 0 3 0;
#X connect 9 1 8 1;
#X connect 10 0 9 0;
#X connect 11 0 8 0;
#X connect 11 1 5 0;
#X restore 120 234 pd broadcast-hithresh;
#N canvas 63 413 423 339 broadcast-lothresh 0;
#X obj 122 291 send;
#X obj 152 167 until;
#X msg 152 143 11;
#X obj 160 110 t b b;
#X msg 217 157 1;
#X obj 173 240 f;
#X obj 203 240 + 1;
#X obj 113 252 f;
#X obj 80 54 t b f;
#X obj 80 31 inlet;
#X obj 120 196 t b b;
#X obj 173 264 makefilename \$0-lothresh-%d-i;
#X connect 1 0 10 0;
#X connect 2 0 1 0;
#X connect 3 0 2 0;
#X connect 3 1 4 0;
#X connect 4 0 5 1;
#X connect 5 0 6 0;
#X connect 5 0 11 0;
#X connect 6 0 5 1;
#X connect 7 0 0 0;
#X connect 8 0 3 0;
#X connect 8 1 7 1;
#X connect 9 0 8 0;
#X connect 10 0 7 0;
#X connect 10 1 5 0;
#X connect 11 0 0 1;
#X restore 120 257 pd broadcast-lothresh;
#X obj 177 158 r \$0-master-hithresh-o;
#X obj 177 181 r \$0-master-lothresh-o;
#X obj 178 204 r \$0-master-enable-output-o;
#N canvas 63 413 513 355 broadcast-enable-output 0;
#X obj 122 291 send;
#X obj 152 167 until;
#X msg 152 143 11;
#X obj 160 110 t b b;
#X msg 217 157 1;
#X obj 173 240 f;
#X obj 203 240 + 1;
#X obj 113 252 f;
#X obj 80 54 t b f;
#X obj 80 31 inlet;
#X obj 120 196 t b b;
#X obj 173 264 makefilename \$0-enable-output-%d-i;
#X connect 1 0 10 0;
#X connect 2 0 1 0;
#X connect 3 0 2 0;
#X connect 3 1 4 0;
#X connect 4 0 5 1;
#X connect 5 0 6 0;
#X connect 5 0 11 0;
#X connect 6 0 5 1;
#X connect 7 0 0 0;
#X connect 8 0 3 0;
#X connect 8 1 7 1;
#X connect 9 0 8 0;
#X connect 10 0 7 0;
#X connect 10 1 5 0;
#X connect 11 0 0 1;
#X restore 120 280 pd broadcast-enable-output;
#X connect 2 0 0 0;
#X connect 3 0 1 0;
#X connect 4 0 5 0;
#X restore 805 323 pd master-controls;
#X obj 534 389 cnv 22 167 22 empty empty \$1 2 10 0 16 #e0e0e0 #404040 0;
#X connect 0 0 3 0;
#X connect 1 0 2 0;
#X connect 1 1 7 0;
#X connect 3 0 1 0;
#X connect 7 0 2 1;
#X connect 9 0 4 0;
#X coords 0 -1 1 1 672 538 2 30 30;
