#N canvas 433 25 812 659 12;
#N canvas 129 148 1214 629 MIDI-input 0;
#X obj 75 47 bendin;
#X obj 75 100 pack f f;
#X msg 75 124 \$2 \$1;
#X obj 181 186 ctlin;
#X obj 164 243 pack f f f;
#X msg 164 267 \$3 \$2 \$1;
#X obj 164 291 route 1;
#X obj 54 243 pack f f f;
#X obj 54 291 route 1;
#X obj 87 219 > 0;
#X msg 54 267 \$3 \$1 \$2;
#X obj 68 193 notein;
#X text 92 26 < look for messages from port 2;
#X obj 231 219 - 0;
#X text 264 219 < look for messages from port 1;
#X obj 663 339 route 1 2 3 4 5 6 7 8 0;
#X obj 639 389 vsl 19 162 0 127 0 0 empty empty empty 0 -9 0 12 #fcfcfc #000000 #000000 0 1;
#X obj 661 389 vsl 19 162 0 127 0 0 empty empty empty 0 -9 0 12 #fcfcfc #000000 #000000 0 1;
#X obj 683 389 vsl 19 162 0 127 0 0 empty empty empty 0 -9 0 12 #fcfcfc #000000 #000000 0 1;
#X obj 164 315 s uc33-sliders;
#X obj 663 315 r uc33-sliders;
#X obj 705 389 vsl 19 162 0 127 0 0 empty empty empty 0 -9 0 12 #fcfcfc #000000 #000000 0 1;
#X obj 727 389 vsl 19 162 0 127 0 0 empty empty empty 0 -9 0 12 #fcfcfc #000000 #000000 0 1;
#X obj 749 389 vsl 19 162 0 127 0 0 empty empty empty 0 -9 0 12 #fcfcfc #000000 #000000 0 1;
#X obj 858 381 vsl 19 162 0 127 0 0 empty empty empty 0 -9 0 12 #fcfcfc #000000 #000000 0 1;
#X obj 75 149 s teensy-capacitive-sensors;
#X obj 54 315 s uc33-buttons;
#X obj 712 174 route 1 2 3 4 5 6 7 8 9;
#X obj 712 204 tgl 19 0 empty empty empty 0 -10 0 12 #fcfcfc #000000 #000000 0 1;
#X obj 734 204 tgl 19 0 empty empty empty 0 -10 0 12 #fcfcfc #000000 #000000 0 1;
#X obj 756 204 tgl 19 0 empty empty empty 0 -10 0 12 #fcfcfc #000000 #000000 0 1;
#X obj 712 226 tgl 19 0 empty empty empty 0 -10 0 12 #fcfcfc #000000 #000000 0 1;
#X obj 734 226 tgl 19 0 empty empty empty 0 -10 0 12 #fcfcfc #000000 #000000 0 1;
#X obj 756 226 tgl 19 0 empty empty empty 0 -10 0 12 #fcfcfc #000000 #000000 0 1;
#X obj 712 248 tgl 19 0 empty empty empty 0 -10 0 12 #fcfcfc #000000 #000000 0 1;
#X obj 734 248 tgl 19 0 empty empty empty 0 -10 0 12 #fcfcfc #000000 #000000 0 1;
#X obj 756 248 tgl 19 0 empty empty empty 0 -10 0 12 #fcfcfc #000000 #000000 0 1;
#X obj 712 148 r uc33-buttons;
#X obj 121 219 - 0;
#N canvas 768 125 423 495 archives+tests 0;
#N canvas 0 25 1440 762 orientation-and-trig 0;
#X obj 325 44 hsl 162 19 0 0.99 0 0 empty empty empty -2 -10 0 12 #fcfcfc #000000 #000000 0 0;
#N canvas 192 192 577 491 onepole 0;
#X obj 180 278 f;
#X obj 127 277 +;
#X obj 180 322 *;
#X obj 127 90 t f b, f 8;
#X obj 127 322 t f f;
#X obj 145 139 expr 1-$f1;
#X obj 252 89 t f f;
#X obj 127 420 outlet;
#X obj 61 30 inlet;
#X obj 252 55 inlet;
#X obj 127 166 * 1;
#X obj 87 60 t f f;
#X obj 87 376 -;
#X obj 180 420 outlet;
#X text 255 340 y[n] = x[n] * a - y[n-1] * (1 - a);
#X text 254 381 rightmost :;
#X text 256 405 value = x[n] - y[n] (cheap highpass);
#X text 254 315 leftmost :;
#X connect 0 0 2 0;
#X connect 1 0 4 0;
#X connect 2 0 1 1;
#X connect 3 0 10 0;
#X connect 3 1 0 0;
#X connect 4 0 7 0;
#X connect 4 0 12 1;
#X connect 4 1 0 1;
#X connect 5 0 10 1;
#X connect 6 0 5 0;
#X connect 6 1 2 1;
#X connect 8 0 11 0;
#X connect 9 0 6 0;
#X connect 10 0 1 0;
#X connect 11 0 12 0;
#X connect 11 1 3 0;
#X connect 12 0 13 0;
#X restore 95 135 pd onepole;
#N canvas 192 192 577 491 onepole 0;
#X obj 180 278 f;
#X obj 127 277 +;
#X obj 180 322 *;
#X obj 127 90 t f b, f 8;
#X obj 127 322 t f f;
#X obj 145 139 expr 1-$f1;
#X obj 252 89 t f f;
#X obj 127 420 outlet;
#X obj 61 30 inlet;
#X obj 252 55 inlet;
#X obj 127 166 * 1;
#X obj 87 60 t f f;
#X obj 87 376 -;
#X obj 180 420 outlet;
#X text 255 340 y[n] = x[n] * a - y[n-1] * (1 - a);
#X text 254 381 rightmost :;
#X text 256 405 value = x[n] - y[n] (cheap highpass);
#X text 254 315 leftmost :;
#X connect 0 0 2 0;
#X connect 1 0 4 0;
#X connect 2 0 1 1;
#X connect 3 0 10 0;
#X connect 3 1 0 0;
#X connect 4 0 7 0;
#X connect 4 0 12 1;
#X connect 4 1 0 1;
#X connect 5 0 10 1;
#X connect 6 0 5 0;
#X connect 6 1 2 1;
#X connect 8 0 11 0;
#X connect 9 0 6 0;
#X connect 10 0 1 0;
#X connect 11 0 12 0;
#X connect 11 1 3 0;
#X connect 12 0 13 0;
#X restore 175 136 pd onepole;
#N canvas 192 192 577 491 onepole 0;
#X obj 180 278 f;
#X obj 127 277 +;
#X obj 180 322 *;
#X obj 127 90 t f b, f 8;
#X obj 127 322 t f f;
#X obj 145 139 expr 1-$f1;
#X obj 252 89 t f f;
#X obj 127 420 outlet;
#X obj 61 30 inlet;
#X obj 252 55 inlet;
#X obj 127 166 * 1;
#X obj 87 60 t f f;
#X obj 87 376 -;
#X obj 180 420 outlet;
#X text 255 340 y[n] = x[n] * a - y[n-1] * (1 - a);
#X text 254 381 rightmost :;
#X text 256 405 value = x[n] - y[n] (cheap highpass);
#X text 254 315 leftmost :;
#X connect 0 0 2 0;
#X connect 1 0 4 0;
#X connect 2 0 1 1;
#X connect 3 0 10 0;
#X connect 3 1 0 0;
#X connect 4 0 7 0;
#X connect 4 0 12 1;
#X connect 4 1 0 1;
#X connect 5 0 10 1;
#X connect 6 0 5 0;
#X connect 6 1 2 1;
#X connect 8 0 11 0;
#X connect 9 0 6 0;
#X connect 10 0 1 0;
#X connect 11 0 12 0;
#X connect 11 1 3 0;
#X connect 12 0 13 0;
#X restore 255 135 pd onepole;
#X obj 175 83 r phorminx-accel-y;
#X obj 95 58 r phorminx-accel-x;
#X obj 255 108 r phorminx-accel-z;
#X floatatom 282 44 5 0 0 0 - - - 0;
#X msg 322 17 0.91;
#N canvas 734 25 706 762 hit-detection 0;
#X obj 134 50 expr sqrt($f1*$f1 + $f2*$f2 + $f3*$f3);
#X obj 137 267 t f f;
#X obj 137 305 -;
#X obj 134 20 inlet;
#X obj 265 20 inlet;
#X obj 397 20 inlet;
#X obj 216 542 change;
#X obj 216 402 >;
#X floatatom 276 364 5 0 0 0 - - - 0;
#X obj 216 427 sel 1;
#X obj 267 427 sel 1;
#X msg 299 478 0;
#X obj 267 452 t b b;
#X msg 216 478 1;
#X obj 137 583 spigot;
#X obj 227 364 t f f;
#X obj 137 390 f;
#X obj 137 331 t b f;
#N canvas 160 160 331 308 onebang 0;
#X obj 125 159 spigot;
#X obj 125 187 t b b;
#X msg 195 173 0;
#X msg 164 126 1;
#X obj 103 43 inlet;
#X obj 164 43 inlet;
#X obj 112 238 outlet;
#X connect 0 0 1 0;
#X connect 1 0 6 0;
#X connect 1 1 2 0;
#X connect 2 0 0 1;
#X connect 3 0 0 1;
#X connect 4 0 0 0;
#X connect 5 0 3 0;
#X restore 267 543 pd onebang;
#X obj 267 569 t b b;
#X obj 184 642 max;
#X obj 184 668 t f f;
#X obj 259 714 f;
#X obj 216 451 t b b;
#X msg 202 616 0;
#X obj 99 175 hsl 162 19 0 0.99 0 0 empty empty empty -2 -10 0 12 #fcfcfc #000000 #000000 0 0;
#X obj 201 231 t f f;
#X obj 276 310 loadbang;
#X obj 267 402 < 0;
#X obj 259 796 outlet;
#X floatatom 96 199 5 0 0 0 - - - 0;
#N canvas 192 192 577 491 onepole 0;
#X obj 180 278 f;
#X obj 127 277 +;
#X obj 180 322 *;
#X obj 127 90 t f b, f 8;
#X obj 127 322 t f f;
#X obj 145 139 expr 1-$f1;
#X obj 252 89 t f f;
#X obj 127 420 outlet;
#X obj 61 30 inlet;
#X obj 252 55 inlet;
#X obj 127 166 * 1;
#X obj 87 60 t f f;
#X obj 87 376 -;
#X obj 180 420 outlet;
#X text 255 340 y[n] = x[n] * a - y[n-1] * (1 - a);
#X text 254 381 rightmost :;
#X text 256 405 value = x[n] - y[n] (cheap highpass);
#X text 254 315 leftmost :;
#X connect 0 0 2 0;
#X connect 1 0 4 0;
#X connect 2 0 1 1;
#X connect 3 0 10 0;
#X connect 3 1 0 0;
#X connect 4 0 7 0;
#X connect 4 0 12 1;
#X connect 4 1 0 1;
#X connect 5 0 10 1;
#X connect 6 0 5 0;
#X connect 6 1 2 1;
#X connect 8 0 11 0;
#X connect 9 0 6 0;
#X connect 10 0 1 0;
#X connect 11 0 12 0;
#X connect 11 1 3 0;
#X connect 12 0 13 0;
#X restore 134 116 pd onepole;
#X floatatom 227 141 5 0 0 0 - - - 0;
#X obj 227 90 loadbang;
#X msg 227 116 0.75;
#X obj 403 729 delay 200;
#X obj 354 692 loadbang;
#X msg 354 716 1;
#N canvas 160 160 435 417 oneanything 0;
#X obj 125 159 spigot;
#X msg 195 173 0;
#X msg 164 126 1;
#X obj 103 43 inlet;
#X obj 164 43 inlet;
#X obj 112 238 outlet;
#X obj 125 187 t a b;
#X connect 0 0 6 0;
#X connect 1 0 0 1;
#X connect 2 0 0 1;
#X connect 3 0 0 0;
#X connect 4 0 2 0;
#X connect 6 0 5 0;
#X connect 6 1 1 0;
#X restore 259 741 pd oneanything;
#X obj 259 767 t f b;
#X text 477 729 < anti bounce;
#X msg 276 335 0.033;
#X floatatom 341 364 5 0 0 0 - - - 0;
#X obj 341 310 loadbang;
#X msg 341 335 0;
#X connect 0 0 31 0;
#X connect 1 0 2 1;
#X connect 1 1 2 0;
#X connect 2 0 17 0;
#X connect 3 0 0 0;
#X connect 4 0 0 1;
#X connect 5 0 0 2;
#X connect 6 0 14 1;
#X connect 7 0 9 0;
#X connect 8 0 7 1;
#X connect 9 0 23 0;
#X connect 10 0 12 0;
#X connect 11 0 6 0;
#X connect 12 0 18 0;
#X connect 12 1 11 0;
#X connect 13 0 6 0;
#X connect 14 0 20 0;
#X connect 15 0 7 0;
#X connect 15 1 28 0;
#X connect 16 0 14 0;
#X connect 17 0 16 0;
#X connect 17 1 15 0;
#X connect 18 0 19 0;
#X connect 19 0 24 0;
#X connect 19 1 22 0;
#X connect 20 0 21 0;
#X connect 21 0 20 1;
#X connect 21 1 22 1;
#X connect 22 0 38 0;
#X connect 23 0 13 0;
#X connect 23 1 18 1;
#X connect 24 0 20 1;
#X connect 25 0 30 0;
#X connect 26 0 1 0;
#X connect 26 1 16 1;
#X connect 27 0 41 0;
#X connect 28 0 10 0;
#X connect 31 0 25 0;
#X connect 31 0 26 0;
#X connect 32 0 31 1;
#X connect 33 0 34 0;
#X connect 34 0 32 0;
#X connect 35 0 37 0;
#X connect 36 0 37 0;
#X connect 37 0 38 1;
#X connect 38 0 39 0;
#X connect 39 0 29 0;
#X connect 39 1 35 0;
#X connect 41 0 8 0;
#X connect 42 0 28 1;
#X connect 43 0 44 0;
#X connect 44 0 42 0;
#X restore 310 238 pd hit-detection;
#X obj 320 268 bng 19 250 50 0 empty empty empty 0 -10 0 12 #fcfcfc #000000 #000000;
#X obj 347 268 hsl 162 19 0 0.99 0 0 empty empty empty -2 -10 0 12 #fcfcfc #000000 #000000 0 0;
#X obj 366 17 loadbang;
#X floatatom 273 416 7 0 0 0 - - - 24;
#X text 273 473 so we add 230 (360 - 130) and apply a modulo;
#X obj 704 465 moses 180;
#X obj 764 491 expr 360 - $f1;
#X obj 260 500 expr fmod(($f1 + 230) \, 360);
#X obj 273 390 i;
#X text 273 455 NB : rest position is approx. at angle 130°;
#X obj 723 523 / 180;
#X floatatom 723 551 7 0 0 0 - - - 24;
#X obj 310 294 s phorminx-hit;
#X obj 260 527 s phorminx-azimuth;
#N canvas 192 192 577 491 onepole 0;
#X obj 180 278 f;
#X obj 127 277 +;
#X obj 180 322 *;
#X obj 127 90 t f b, f 8;
#X obj 127 322 t f f;
#X obj 145 139 expr 1-$f1;
#X obj 252 89 t f f;
#X obj 127 420 outlet;
#X obj 61 30 inlet;
#X obj 252 55 inlet;
#X obj 127 166 * 1;
#X obj 87 60 t f f;
#X obj 87 376 -;
#X obj 180 420 outlet;
#X text 255 340 y[n] = x[n] * a - y[n-1] * (1 - a);
#X text 254 381 rightmost :;
#X text 256 405 value = x[n] - y[n] (cheap highpass);
#X text 254 315 leftmost :;
#X connect 0 0 2 0;
#X connect 1 0 4 0;
#X connect 2 0 1 1;
#X connect 3 0 10 0;
#X connect 3 1 0 0;
#X connect 4 0 7 0;
#X connect 4 0 12 1;
#X connect 4 1 0 1;
#X connect 5 0 10 1;
#X connect 6 0 5 0;
#X connect 6 1 2 1;
#X connect 8 0 11 0;
#X connect 9 0 6 0;
#X connect 10 0 1 0;
#X connect 11 0 12 0;
#X connect 11 1 3 0;
#X connect 12 0 13 0;
#X restore 113 666 pd onepole;
#N canvas 192 192 577 491 onepole 0;
#X obj 180 278 f;
#X obj 127 277 +;
#X obj 180 322 *;
#X obj 127 90 t f b, f 8;
#X obj 127 322 t f f;
#X obj 145 139 expr 1-$f1;
#X obj 252 89 t f f;
#X obj 127 420 outlet;
#X obj 61 30 inlet;
#X obj 252 55 inlet;
#X obj 127 166 * 1;
#X obj 87 60 t f f;
#X obj 87 376 -;
#X obj 180 420 outlet;
#X text 255 340 y[n] = x[n] * a - y[n-1] * (1 - a);
#X text 254 381 rightmost :;
#X text 256 405 value = x[n] - y[n] (cheap highpass);
#X text 254 315 leftmost :;
#X connect 0 0 2 0;
#X connect 1 0 4 0;
#X connect 2 0 1 1;
#X connect 3 0 10 0;
#X connect 3 1 0 0;
#X connect 4 0 7 0;
#X connect 4 0 12 1;
#X connect 4 1 0 1;
#X connect 5 0 10 1;
#X connect 6 0 5 0;
#X connect 6 1 2 1;
#X connect 8 0 11 0;
#X connect 9 0 6 0;
#X connect 10 0 1 0;
#X connect 11 0 12 0;
#X connect 11 1 3 0;
#X connect 12 0 13 0;
#X restore 192 691 pd onepole;
#N canvas 192 192 577 491 onepole 0;
#X obj 180 278 f;
#X obj 127 277 +;
#X obj 180 322 *;
#X obj 127 90 t f b, f 8;
#X obj 127 322 t f f;
#X obj 145 139 expr 1-$f1;
#X obj 252 89 t f f;
#X obj 127 420 outlet;
#X obj 61 30 inlet;
#X obj 252 55 inlet;
#X obj 127 166 * 1;
#X obj 87 60 t f f;
#X obj 87 376 -;
#X obj 180 420 outlet;
#X text 255 340 y[n] = x[n] * a - y[n-1] * (1 - a);
#X text 254 381 rightmost :;
#X text 256 405 value = x[n] - y[n] (cheap highpass);
#X text 254 315 leftmost :;
#X connect 0 0 2 0;
#X connect 1 0 4 0;
#X connect 2 0 1 1;
#X connect 3 0 10 0;
#X connect 3 1 0 0;
#X connect 4 0 7 0;
#X connect 4 0 12 1;
#X connect 4 1 0 1;
#X connect 5 0 10 1;
#X connect 6 0 5 0;
#X connect 6 1 2 1;
#X connect 8 0 11 0;
#X connect 9 0 6 0;
#X connect 10 0 1 0;
#X connect 11 0 12 0;
#X connect 11 1 3 0;
#X connect 12 0 13 0;
#X restore 271 716 pd onepole;
#X obj 192 666 r phorminx-accel-y;
#X obj 113 641 r phorminx-accel-x;
#X obj 271 691 r phorminx-accel-z;
#X obj 262 600 hsl 162 19 0 0.99 0 0 empty empty empty -2 -10 0 12 #fcfcfc #000000 #000000 0 0;
#X floatatom 294 633 5 0 0 0 - - - 0;
#X obj 303 573 loadbang;
#N canvas 192 187 790 685 bidir-onepole 0;
#X obj 199 473 f;
#X obj 146 472 +;
#X obj 199 517 *;
#X obj 146 285 t f b, f 8;
#X obj 146 517 t f f;
#X obj 164 334 expr 1-$f1;
#X obj 237 285 t f f;
#X obj 146 615 outlet;
#X obj 106 36 inlet;
#X obj 146 361 * 1;
#X obj 106 255 t f f;
#X obj 106 571 -;
#X obj 199 615 outlet;
#X text 274 535 y[n] = x[n] * a - y[n-1] * (1 - a);
#X text 273 576 rightmost :;
#X text 275 600 value = x[n] - y[n] (cheap highpass);
#X text 273 510 leftmost :;
#X obj 236 119 t f f;
#X obj 237 160 -;
#X obj 237 187 >= 0;
#X obj 237 256 f;
#X obj 266 256 f;
#X obj 237 214 sel 1 0;
#X obj 106 62 t f f;
#X obj 360 58 inlet;
#X obj 406 58 inlet;
#X connect 0 0 2 0;
#X connect 1 0 4 0;
#X connect 2 0 1 1;
#X connect 3 0 9 0;
#X connect 3 1 0 0;
#X connect 4 0 7 0;
#X connect 4 0 11 1;
#X connect 4 0 17 0;
#X connect 4 1 0 1;
#X connect 5 0 9 1;
#X connect 6 0 5 0;
#X connect 6 1 2 1;
#X connect 8 0 23 0;
#X connect 9 0 1 0;
#X connect 10 0 11 0;
#X connect 10 1 3 0;
#X connect 11 0 12 0;
#X connect 17 0 18 1;
#X connect 17 1 18 0;
#X connect 18 0 19 0;
#X connect 19 0 22 0;
#X connect 20 0 6 0;
#X connect 21 0 6 0;
#X connect 22 0 20 0;
#X connect 22 1 21 0;
#X connect 23 0 10 0;
#X connect 24 0 20 1;
#X connect 25 0 21 1;
#X restore 113 864 pd bidir-onepole;
#X floatatom 167 837 5 0 0 0 - - - 0;
#X floatatom 222 835 5 0 0 0 - - - 0;
#X obj 116 889 hsl 162 19 0 0.99 0 0 empty empty empty -2 -10 0 12 #fcfcfc #000000 #000000 0 0;
#X obj 113 914 s phorminx-intensity;
#X obj 506 716 expr sqrt($f1*$f1+$f2*$f2+$f3*$f3);
#X obj 623 643 r phorminx-accel-y;
#X obj 506 619 r phorminx-accel-x;
#X obj 741 667 r phorminx-accel-z;
#X obj 506 769 vsl 19 162 0 1 0 0 empty empty empty 0 -9 0 12 #fcfcfc #000000 #000000 0 0;
#X obj 506 691 * 2;
#X obj 623 691 * 2;
#X obj 741 691 * 2;
#X obj 506 741 - 1;
#X obj 270 827 bng 19 250 50 0 empty empty empty 0 -10 0 12 #fcfcfc #000000 #000000;
#X obj 270 803 loadbang;
#X obj 705 441 r phorminx-azimuth;
#X text 549 747 norm equals 1 when we really measure pure gravity information (or could norm equal 1 otherwise) ?;
#X obj 709 795 r phorminx-azimuth;
#X obj 95 412 s phorminx-elevation;
#X obj 556 795 r phorminx-elevation;
#X obj 260 362 jl/map -3.14159 3.14159 -180 180;
#X obj 113 772 jl/map 0.015 1 0 1 -1 0.5;
#X msg 259 573 0.75;
#X msg 167 813 0.25;
#X floatatom 132 335 5 0 0 0 - - - 0;
#X floatatom 175 334 5 0 0 0 - - - 0;
#X obj 95 362 jl/map -0.85 0.85 -1 1;
#X obj 95 387 clip -1 1;
#X floatatom 95 255 5 0 0 0 - - - 0;
#X floatatom 260 252 5 0 0 0 - - - 0;
#X obj 394 166 hradio 19 1 0 4 empty empty empty 0 -10 0 12 #fcfcfc #000000 #000000 0;
#X text 387 143 none \, xyz \, yzx or zxy;
#N canvas 251 184 743 649 detect-shock-type 0;
#X obj 161 300 timer;
#X obj 161 260 sel 1;
#X obj 161 235 change;
#X floatatom 164 345 5 0 0 0 - - - 0;
#X obj 209 263 bng 19 250 50 0 empty empty empty 0 -10 0 12 #fcfcfc #000000 #000000;
#X obj 253 420 f;
#X obj 253 446 s phorminx-tap;
#X floatatom 209 448 5 0 0 0 - - - 0;
#X text 41 38 todo : more clever anticipatory movement analysis;
#X obj 89 80 inlet intensity;
#X obj 283 88 inlet hit;
#X obj 210 374 sel 1 0;
#X obj 365 420 f;
#X obj 365 446 s phorminx-shake;
#X obj 248 235 t b f f;
#X obj 161 210 > 0.2;
#X obj 210 348 < 110;
#X obj 404 241 r phorminx-elevation;
#X floatatom 394 288 5 0 0 0 - - - 0;
#X obj 446 278 r phorminx-azimuth;
#X floatatom 447 323 5 0 0 0 - - - 0;
#X text 402 214 todo : forbid detections in some postures;
#X connect 0 0 3 0;
#X connect 0 0 16 0;
#X connect 1 0 0 0;
#X connect 2 0 1 0;
#X connect 4 0 0 1;
#X connect 5 0 6 0;
#X connect 5 0 7 0;
#X connect 9 0 15 0;
#X connect 10 0 14 0;
#X connect 11 0 5 0;
#X connect 11 1 12 0;
#X connect 12 0 13 0;
#X connect 14 0 4 0;
#X connect 14 1 5 1;
#X connect 14 2 12 1;
#X connect 15 0 2 0;
#X connect 16 0 11 0;
#X connect 17 0 18 0;
#X connect 19 0 20 0;
#X restore 654 145 pd detect-shock-type;
#X msg 222 812 0.5;
#X obj 654 95 r phorminx-intensity;
#X obj 791 120 r phorminx-hit;
#X obj 477 166 loadbang;
#X obj 655 218 r phorminx-yellow-btn;
#X obj 655 268 s phorminx-yellow-btn-doubleclick;
#X obj 655 347 s phorminx-yellow-btn-hold;
#X msg 477 191 1;
#N canvas 127 152 1313 720 compute-angles 0;
#X obj 107 51 inlet;
#X obj 107 122 clip -0.5 0.5;
#X obj 107 147 * 2;
#X obj 262 452 expr asin($f1)*2/3.14159;
#X obj 441 452 expr atan2($f1 \, $f2);
#X obj 233 51 inlet;
#X obj 233 122 clip -0.5 0.5;
#X obj 233 147 * 2;
#X obj 358 51 inlet;
#X obj 358 122 clip -0.5 0.5;
#X obj 358 147 * 2;
#X obj 200 212 pack f f f;
#X msg 297 349 \$1 \$2 \$3;
#X msg 368 349 \$2 \$3 \$1;
#X msg 438 349 \$3 \$1 \$2;
#X obj 344 282 list prepend;
#X obj 344 308 route 1 2 3;
#X obj 368 388 unpack f f f;
#X obj 509 51 inlet;
#X obj 262 504 outlet elevation;
#X obj 441 503 outlet azimuth;
#X obj 596 257 expr asin($f1)*2/3.14159;
#X obj 599 303 hsl 162 19 0 0.99 0 0 empty empty empty -2 -10 0 12 #fcfcfc #000000 #000000 0 0;
#X obj 774 257 expr asin($f1)*2/3.14159;
#X obj 777 303 hsl 162 19 0 0.99 0 0 empty empty empty -2 -10 0 12 #fcfcfc #000000 #000000 0 0;
#X floatatom 626 189 5 0 0 0 - - - 0;
#X floatatom 670 190 5 0 0 0 - - - 0;
#X obj 696 659 hsl 162 19 0 0.99 0 0 empty empty empty -2 -10 0 12 #fcfcfc #000000 #000000 0 0;
#X obj 958 321 unpack f f;
#X obj 958 348 unpack f f;
#X obj 959 375 unpack f f;
#X obj 959 402 unpack f f;
#X obj 951 226 list split 2;
#X obj 991 251 list split 2;
#X obj 1032 276 list split 2;
#X obj 1072 301 list split 2;
#X msg 964 135 0 0 0 1 1 0 1 1;
#X obj 706 631 hsl 162 19 0 0.99 0 0 empty empty empty -2 -10 0 12 #fcfcfc #000000 #000000 0 0;
#X obj 729 605 hsl 162 19 0 0.99 0 0 empty empty empty -2 -10 0 12 #fcfcfc #000000 #000000 0 0;
#X obj 739 577 hsl 162 19 0 0.99 0 0 empty empty empty -2 -10 0 12 #fcfcfc #000000 #000000 0 0;
#X floatatom 780 353 5 0 0 0 - - - 0;
#X msg 977 174 0.5 0.5 0 1 1 0 1 1;
#X obj 643 139 jl/map -1 1 0 1;
#X obj 821 139 jl/map -1 1 0 1;
#X floatatom 722 34 5 0 0 0 - - - 0;
#X floatatom 766 35 5 0 0 0 - - - 0;
#X obj 596 280 t f;
#X obj 774 280 t f;
#X msg 1014 110 \$1 \$1 \$1 \$2 \$2 \$2 \$2 \$1;
#X obj 1014 85 pack f f;
#X obj 1038 48 t b f;
#X floatatom 1022 21 5 0 0 0 - - - 0;
#X floatatom 979 21 5 0 0 0 - - - 0;
#X obj 713 454 expr sqrt(($f1-$f3)*($f1-$f3) + ($f2-$f4)*($f2-$f4));
#X obj 703 479 expr sqrt(($f1-$f3)*($f1-$f3) + ($f2-$f4)*($f2-$f4));
#X obj 695 504 expr sqrt(($f1-$f3)*($f1-$f3) + ($f2-$f4)*($f2-$f4));
#X obj 685 529 expr sqrt(($f1-$f3)*($f1-$f3) + ($f2-$f4)*($f2-$f4));
#X text 597 229 y;
#X text 775 230 z;
#X connect 0 0 1 0;
#X connect 1 0 2 0;
#X connect 2 0 11 0;
#X connect 3 0 19 0;
#X connect 4 0 20 0;
#X connect 5 0 6 0;
#X connect 6 0 7 0;
#X connect 7 0 11 1;
#X connect 8 0 9 0;
#X connect 9 0 10 0;
#X connect 10 0 11 2;
#X connect 11 0 15 0;
#X connect 12 0 17 0;
#X connect 13 0 17 0;
#X connect 14 0 17 0;
#X connect 15 0 16 0;
#X connect 16 0 12 0;
#X connect 16 1 13 0;
#X connect 16 2 14 0;
#X connect 17 0 3 0;
#X connect 17 1 4 0;
#X connect 17 2 4 1;
#X connect 18 0 15 1;
#X connect 21 0 46 0;
#X connect 23 0 47 0;
#X connect 28 0 53 1;
#X connect 28 1 53 3;
#X connect 29 0 54 1;
#X connect 29 1 54 3;
#X connect 30 0 55 1;
#X connect 30 1 55 3;
#X connect 31 0 56 1;
#X connect 31 1 56 3;
#X connect 32 0 28 0;
#X connect 32 1 33 0;
#X connect 33 0 29 0;
#X connect 33 1 34 0;
#X connect 34 0 30 0;
#X connect 34 1 35 0;
#X connect 35 0 31 0;
#X connect 36 0 32 0;
#X connect 41 0 32 0;
#X connect 44 0 42 1;
#X connect 44 0 43 1;
#X connect 45 0 42 2;
#X connect 45 0 43 2;
#X connect 46 0 22 0;
#X connect 46 0 53 0;
#X connect 46 0 54 0;
#X connect 46 0 55 0;
#X connect 46 0 56 0;
#X connect 47 0 24 0;
#X connect 47 0 40 0;
#X connect 47 0 53 2;
#X connect 47 0 54 2;
#X connect 47 0 55 2;
#X connect 47 0 56 2;
#X connect 48 0 32 0;
#X connect 49 0 48 0;
#X connect 50 0 49 0;
#X connect 50 1 49 1;
#X connect 51 0 50 0;
#X connect 52 0 49 0;
#X connect 53 0 39 0;
#X connect 54 0 38 0;
#X connect 55 0 37 0;
#X connect 56 0 27 0;
#X restore 95 224 pd compute-angles;
#N canvas 234 234 450 300 hold-btn 0;
#X obj 145 169 delay 1000;
#X obj 145 106 sel 1 0;
#X msg 168 131 stop;
#X obj 145 36 inlet;
#X obj 145 225 outlet;
#X obj 244 52 inlet;
#X connect 0 0 4 0;
#X connect 1 0 0 0;
#X connect 1 1 2 0;
#X connect 2 0 0 0;
#X connect 3 0 1 0;
#X connect 5 0 0 1;
#X restore 655 323 pd hold-btn;
#X obj 655 299 r phorminx-yellow-btn;
#X floatatom 743 323 5 0 0 0 - - - 0;
#N canvas 260 260 450 300 dbl-clik-btn 0;
#X obj 140 137 timer;
#X obj 140 111 t b b;
#X obj 140 86 sel 1;
#X floatatom 97 192 5 0 0 0 - - - 0;
#X obj 150 201 sel 1;
#X obj 150 177 < 333;
#X obj 140 40 inlet;
#X obj 150 233 outlet;
#X obj 204 39 inlet max-click-interval;
#X connect 0 0 3 0;
#X connect 0 0 5 0;
#X connect 1 0 0 0;
#X connect 1 1 0 1;
#X connect 2 0 1 0;
#X connect 4 0 7 0;
#X connect 5 0 4 0;
#X connect 6 0 2 0;
#X connect 8 0 5 1;
#X restore 655 243 pd dbl-clik-btn;
#X floatatom 771 243 5 0 0 0 - - - 0;
#X obj 973 183 r phorminx-yellow-btn;
#X obj 934 207 spigot;
#X obj 934 231 sel 1;
#X obj 934 159 r phorminx-btn-4;
#X msg 934 255 1;
#X obj 934 279 s phorminx-hit-armed;
#X obj 113 746 ./_from-thyrse/intensity 0.5 10;
#X connect 0 0 1 1;
#X connect 0 0 2 1;
#X connect 0 0 3 1;
#X connect 0 0 7 0;
#X connect 1 0 75 0;
#X connect 1 1 9 0;
#X connect 2 0 75 1;
#X connect 2 1 9 1;
#X connect 3 0 75 2;
#X connect 3 1 9 2;
#X connect 4 0 2 0;
#X connect 5 0 1 0;
#X connect 6 0 3 0;
#X connect 8 0 0 0;
#X connect 9 0 10 0;
#X connect 9 0 11 0;
#X connect 9 0 22 0;
#X connect 12 0 8 0;
#X connect 15 0 20 0;
#X connect 15 1 16 0;
#X connect 16 0 20 0;
#X connect 17 0 23 0;
#X connect 18 0 13 0;
#X connect 20 0 21 0;
#X connect 24 0 87 0;
#X connect 25 0 87 1;
#X connect 26 0 87 2;
#X connect 27 0 25 0;
#X connect 28 0 24 0;
#X connect 29 0 26 0;
#X connect 30 0 31 0;
#X connect 30 0 24 1;
#X connect 30 0 25 1;
#X connect 30 0 26 1;
#X connect 32 0 56 0;
#X connect 33 0 36 0;
#X connect 34 0 33 1;
#X connect 35 0 33 2;
#X connect 36 0 37 0;
#X connect 38 0 46 0;
#X connect 43 0 38 0;
#X connect 44 0 38 1;
#X connect 45 0 38 2;
#X connect 46 0 42 0;
#X connect 47 0 67 0;
#X connect 47 0 57 0;
#X connect 48 0 47 0;
#X connect 54 0 17 0;
#X connect 54 0 18 0;
#X connect 55 0 33 0;
#X connect 56 0 30 0;
#X connect 57 0 34 0;
#X connect 58 0 60 1;
#X connect 59 0 60 2;
#X connect 60 0 61 0;
#X connect 61 0 52 0;
#X connect 62 0 60 0;
#X connect 63 0 54 0;
#X connect 64 0 75 3;
#X connect 67 0 35 0;
#X connect 68 0 66 0;
#X connect 69 0 66 1;
#X connect 70 0 74 0;
#X connect 71 0 79 0;
#X connect 74 0 64 0;
#X connect 75 0 62 0;
#X connect 75 1 63 0;
#X connect 76 0 73 0;
#X connect 77 0 76 0;
#X connect 78 0 76 1;
#X connect 79 0 72 0;
#X connect 80 0 79 1;
#X connect 81 0 82 1;
#X connect 82 0 83 0;
#X connect 83 0 85 0;
#X connect 84 0 82 0;
#X connect 85 0 86 0;
#X connect 87 0 55 0;
#X restore 38 428 pd orientation-and-trig;
#X obj 64 63 route 1 2 3 4 5 6 7 8 9 10 11;
#N canvas 823 297 440 477 auto-normalize 0;
#X obj 108 98 inlet valuein;
#X obj 210 98 inlet reset;
#X obj 108 123 t f f f;
#X obj 161 215 <;
#X obj 161 190 t f f;
#X obj 161 240 sel 1;
#X obj 189 266 f;
#X obj 189 291 t f f;
#X obj 226 190 t f f;
#X obj 226 240 sel 1;
#X obj 254 266 f;
#X obj 254 291 t f f;
#X obj 226 215 >;
#X obj 210 122 t b b;
#N canvas 179 204 419 498 scale 0;
#X obj 197 53 inlet minin;
#X obj 292 53 inlet maxin;
#X obj 54 54 inlet valuein;
#X obj 197 78 t f f;
#X obj 292 78 t f f;
#X obj 320 140 !=;
#X obj 105 212 spigot;
#X obj 197 256 expr $f2 - $f1;
#X obj 166 229 t f f;
#X obj 116 316 /;
#X obj 110 281 -;
#X obj 127 376 outlet normalized;
#X connect 0 0 3 0;
#X connect 1 0 4 0;
#X connect 2 0 6 0;
#X connect 3 0 8 0;
#X connect 3 1 5 0;
#X connect 4 0 7 1;
#X connect 4 1 5 1;
#X connect 5 0 6 1;
#X connect 6 0 10 0;
#X connect 7 0 9 1;
#X connect 8 0 10 1;
#X connect 8 1 7 0;
#X connect 9 0 11 0;
#X connect 10 0 9 0;
#X restore 147 375 pd scale;
#X obj 147 419 outlet normvalueout;
#X obj 240 37 loadbang;
#X obj 241 60 bng 19 250 50 0 empty empty empty 0 -10 0 12 #fcfcfc #000000 #000000;
#X msg 207 148 10000;
#X msg 255 148 -10000;
#X connect 0 0 2 0;
#X connect 1 0 13 0;
#X connect 2 0 14 0;
#X connect 2 1 4 0;
#X connect 2 2 8 0;
#X connect 3 0 5 0;
#X connect 4 0 3 0;
#X connect 4 1 6 1;
#X connect 5 0 6 0;
#X connect 6 0 7 0;
#X connect 7 0 14 1;
#X connect 7 1 3 1;
#X connect 8 0 12 0;
#X connect 8 1 10 1;
#X connect 9 0 10 0;
#X connect 10 0 11 0;
#X connect 11 0 14 2;
#X connect 11 1 12 1;
#X connect 12 0 9 0;
#X connect 13 0 18 0;
#X connect 13 1 19 0;
#X connect 14 0 15 0;
#X connect 16 0 17 0;
#X connect 17 0 13 0;
#X connect 18 0 3 1;
#X connect 19 0 12 1;
#X restore 132 122 pd auto-normalize;
#X obj 135 150 hsl 162 19 0 1 0 0 empty empty empty -2 -10 0 12 #fcfcfc #000000 #000000 0 0;
#X obj 261 121 bng 19 250 50 0 empty empty reset\ min/max 22 10 0 12 #fcfcfc #000000 #000000;
#N canvas 823 297 440 477 auto-normalize 0;
#X obj 108 98 inlet valuein;
#X obj 210 98 inlet reset;
#X obj 108 123 t f f f;
#X obj 161 215 <;
#X obj 161 190 t f f;
#X obj 161 240 sel 1;
#X obj 189 266 f;
#X obj 189 291 t f f;
#X obj 226 190 t f f;
#X obj 226 240 sel 1;
#X obj 254 266 f;
#X obj 254 291 t f f;
#X obj 226 215 >;
#X obj 210 122 t b b;
#N canvas 179 204 419 498 scale 0;
#X obj 197 53 inlet minin;
#X obj 292 53 inlet maxin;
#X obj 54 54 inlet valuein;
#X obj 197 78 t f f;
#X obj 292 78 t f f;
#X obj 320 140 !=;
#X obj 105 212 spigot;
#X obj 197 256 expr $f2 - $f1;
#X obj 166 229 t f f;
#X obj 116 316 /;
#X obj 110 281 -;
#X obj 127 376 outlet normalized;
#X connect 0 0 3 0;
#X connect 1 0 4 0;
#X connect 2 0 6 0;
#X connect 3 0 8 0;
#X connect 3 1 5 0;
#X connect 4 0 7 1;
#X connect 4 1 5 1;
#X connect 5 0 6 1;
#X connect 6 0 10 0;
#X connect 7 0 9 1;
#X connect 8 0 10 1;
#X connect 8 1 7 0;
#X connect 9 0 11 0;
#X connect 10 0 9 0;
#X restore 147 375 pd scale;
#X obj 147 419 outlet normvalueout;
#X obj 240 37 loadbang;
#X obj 241 60 bng 19 250 50 0 empty empty empty 0 -10 0 12 #fcfcfc #000000 #000000;
#X msg 207 148 10000;
#X msg 255 148 -10000;
#X floatatom 251 369 5 0 0 0 - - - 0;
#X floatatom 296 363 5 0 0 0 - - - 0;
#X connect 0 0 2 0;
#X connect 1 0 13 0;
#X connect 2 0 14 0;
#X connect 2 1 4 0;
#X connect 2 2 8 0;
#X connect 3 0 5 0;
#X connect 4 0 3 0;
#X connect 4 1 6 1;
#X connect 5 0 6 0;
#X connect 6 0 7 0;
#X connect 7 0 14 1;
#X connect 7 0 20 0;
#X connect 7 1 3 1;
#X connect 8 0 12 0;
#X connect 8 1 10 1;
#X connect 9 0 10 0;
#X connect 10 0 11 0;
#X connect 11 0 14 2;
#X connect 11 0 21 0;
#X connect 11 1 12 1;
#X connect 12 0 9 0;
#X connect 13 0 18 0;
#X connect 13 1 19 0;
#X connect 14 0 15 0;
#X connect 16 0 17 0;
#X connect 17 0 13 0;
#X connect 18 0 3 1;
#X connect 19 0 12 1;
#X restore 90 181 pd auto-normalize;
#X obj 93 208 hsl 162 19 0 1 0 0 empty empty empty -2 -10 0 12 #fcfcfc #000000 #000000 0 0;
#X obj 219 180 bng 19 250 50 0 empty empty reset\ min/max 22 10 0 12 #fcfcfc #000000 #000000;
#N canvas 353 378 461 377 oneeuro 0;
#N canvas 192 192 577 491 onepole 0;
#X obj 187 278 f;
#X obj 127 277 +;
#X obj 187 322 *;
#X obj 127 90 t f b, f 9;
#X obj 145 139 expr 1-$f1;
#X obj 252 89 t f f;
#X obj 127 420 outlet;
#X obj 61 30 inlet;
#X obj 252 55 inlet;
#X obj 127 166 * 1;
#X obj 87 60 t f f;
#X obj 87 376 -;
#X obj 180 420 outlet;
#X text 255 340 y[n] = x[n] * a - y[n-1] * (1 - a);
#X text 254 381 rightmost :;
#X text 256 405 value = x[n] - y[n] (cheap highpass);
#X text 254 315 leftmost :;
#X obj 127 322 t f f f;
#X connect 0 0 2 0;
#X connect 1 0 17 0;
#X connect 2 0 1 1;
#X connect 3 0 9 0;
#X connect 3 1 0 0;
#X connect 4 0 9 1;
#X connect 5 0 4 0;
#X connect 5 1 2 1;
#X connect 7 0 10 0;
#X connect 8 0 5 0;
#X connect 9 0 1 0;
#X connect 10 0 11 0;
#X connect 10 1 3 0;
#X connect 11 0 12 0;
#X connect 17 0 6 0;
#X connect 17 1 11 1;
#X connect 17 2 0 1;
#X restore 133 296 pd onepole;
#X floatatom 299 257 5 0 0 0 - - - 0;
#X obj 299 206 loadbang;
#X msg 299 232 0.75;
#X obj 104 24 inlet;
#X obj 254 88 -;
#X obj 249 55 t f f;
#X obj 107 57 t f f;
#N canvas 192 192 577 491 onepole 0;
#X obj 187 278 f;
#X obj 127 277 +;
#X obj 187 322 *;
#X obj 127 90 t f b, f 9;
#X obj 145 139 expr 1-$f1;
#X obj 252 89 t f f;
#X obj 127 420 outlet;
#X obj 61 30 inlet;
#X obj 252 55 inlet;
#X obj 127 166 * 1;
#X obj 87 60 t f f;
#X obj 87 376 -;
#X obj 180 420 outlet;
#X text 255 340 y[n] = x[n] * a - y[n-1] * (1 - a);
#X text 254 381 rightmost :;
#X text 256 405 value = x[n] - y[n] (cheap highpass);
#X text 254 315 leftmost :;
#X obj 127 322 t f f f;
#X connect 0 0 2 0;
#X connect 1 0 17 0;
#X connect 2 0 1 1;
#X connect 3 0 9 0;
#X connect 3 1 0 0;
#X connect 4 0 9 1;
#X connect 5 0 4 0;
#X connect 5 1 2 1;
#X connect 7 0 10 0;
#X connect 8 0 5 0;
#X connect 9 0 1 0;
#X connect 10 0 11 0;
#X connect 10 1 3 0;
#X connect 11 0 12 0;
#X connect 17 0 6 0;
#X connect 17 1 11 1;
#X connect 17 2 0 1;
#X restore 251 154 pd onepole;
#X floatatom 332 123 5 0 0 0 - - - 0;
#X obj 332 72 loadbang;
#X msg 332 98 0.75;
#X obj 131 329 outlet;
#X obj 385 289 outlet;
#X obj 252 126 abs;
#X obj 83 158 jl/map 0 1 0 0.9 -1;
#X obj 251 178 jl/map 0 0.2 0 0.85 1;
#X connect 0 0 12 0;
#X connect 1 0 0 1;
#X connect 2 0 3 0;
#X connect 3 0 1 0;
#X connect 4 0 7 0;
#X connect 5 0 14 0;
#X connect 6 0 5 1;
#X connect 6 1 5 0;
#X connect 7 0 0 0;
#X connect 7 1 15 0;
#X connect 8 0 16 0;
#X connect 9 0 8 1;
#X connect 10 0 11 0;
#X connect 11 0 9 0;
#X connect 14 0 8 0;
#X connect 15 0 0 1;
#X connect 15 0 13 0;
#X connect 16 0 0 1;
#X restore 235 347 pd oneeuro;
#X floatatom 329 411 5 0 0 0 - - - 0;
#N canvas 641 25 706 762 hit-detection 0;
#X obj 144 120 t f f;
#X obj 144 158 -;
#X obj 223 395 change;
#X floatatom 283 217 5 0 0 0 - - - 0;
#X obj 223 280 sel 1;
#X obj 274 280 sel 1;
#X msg 306 331 0;
#X obj 274 305 t b b;
#X msg 223 331 1;
#X obj 144 436 spigot;
#X obj 234 217 t f f;
#X obj 144 243 f;
#X obj 144 184 t b f;
#N canvas 160 160 331 308 onebang 0;
#X obj 125 159 spigot;
#X obj 125 187 t b b;
#X msg 195 173 0;
#X msg 164 126 1;
#X obj 103 43 inlet;
#X obj 164 43 inlet;
#X obj 112 238 outlet;
#X connect 0 0 1 0;
#X connect 1 0 6 0;
#X connect 1 1 2 0;
#X connect 2 0 0 1;
#X connect 3 0 0 1;
#X connect 4 0 0 0;
#X connect 5 0 3 0;
#X restore 274 396 pd onebang;
#X obj 274 422 t b b;
#X obj 191 495 max;
#X obj 191 521 t f f;
#X obj 266 567 f;
#X obj 223 304 t b b;
#X msg 209 469 0;
#X obj 208 84 t f f;
#X obj 283 163 loadbang;
#X obj 266 649 outlet;
#X obj 410 582 delay 200;
#X obj 361 545 loadbang;
#X msg 361 569 1;
#N canvas 160 160 435 417 oneanything 0;
#X obj 125 159 spigot;
#X msg 195 173 0;
#X msg 164 126 1;
#X obj 103 43 inlet;
#X obj 164 43 inlet;
#X obj 112 238 outlet;
#X obj 125 187 t a b;
#X connect 0 0 6 0;
#X connect 1 0 0 1;
#X connect 2 0 0 1;
#X connect 3 0 0 0;
#X connect 4 0 2 0;
#X connect 6 0 5 0;
#X connect 6 1 1 0;
#X restore 266 594 pd oneanything;
#X obj 266 620 t f b;
#X text 484 582 < anti bounce;
#X floatatom 348 217 5 0 0 0 - - - 0;
#X obj 348 163 loadbang;
#X obj 211 33 inlet;
#X obj 223 255 <;
#X obj 274 255 >;
#X msg 283 188 0;
#X msg 348 188 0.033;
#X connect 0 0 1 1;
#X connect 0 1 1 0;
#X connect 1 0 12 0;
#X connect 2 0 9 1;
#X connect 3 0 32 1;
#X connect 4 0 18 0;
#X connect 5 0 7 0;
#X connect 6 0 2 0;
#X connect 7 0 13 0;
#X connect 7 1 6 0;
#X connect 8 0 2 0;
#X connect 9 0 15 0;
#X connect 10 0 32 0;
#X connect 10 1 33 0;
#X connect 11 0 9 0;
#X connect 12 0 11 0;
#X connect 12 1 10 0;
#X connect 13 0 14 0;
#X connect 14 0 19 0;
#X connect 14 1 17 0;
#X connect 15 0 16 0;
#X connect 16 0 15 1;
#X connect 16 1 17 1;
#X connect 17 0 26 0;
#X connect 18 0 8 0;
#X connect 18 1 13 1;
#X connect 19 0 15 1;
#X connect 20 0 0 0;
#X connect 20 1 11 1;
#X connect 21 0 34 0;
#X connect 23 0 25 0;
#X connect 24 0 25 0;
#X connect 25 0 26 1;
#X connect 26 0 27 0;
#X connect 27 0 22 0;
#X connect 27 1 23 0;
#X connect 29 0 33 1;
#X connect 30 0 35 0;
#X connect 31 0 20 0;
#X connect 32 0 4 0;
#X connect 33 0 5 0;
#X connect 34 0 3 0;
#X connect 35 0 29 0;
#X restore 230 377 pd hit-detection;
#N canvas 251 138 743 649 detect-shock-type 0;
#X obj 161 300 timer;
#X obj 161 260 sel 1;
#X obj 161 235 change;
#X floatatom 164 345 5 0 0 0 - - - 0;
#X obj 209 263 bng 19 250 50 0 empty empty empty 0 -10 0 12 #fcfcfc #000000 #000000;
#X obj 253 420 f;
#X obj 253 446 s phorminx-tap;
#X floatatom 209 448 5 0 0 0 - - - 0;
#X text 41 38 todo : more clever anticipatory movement analysis;
#X obj 89 80 inlet intensity;
#X obj 283 88 inlet hit;
#X obj 210 374 sel 1 0;
#X obj 365 420 f;
#X obj 365 446 s phorminx-shake;
#X obj 248 235 t b f f;
#X obj 161 210 > 0.2;
#X obj 210 348 < 110;
#X obj 404 241 r phorminx-elevation;
#X floatatom 394 288 5 0 0 0 - - - 0;
#X obj 446 278 r phorminx-azimuth;
#X floatatom 447 323 5 0 0 0 - - - 0;
#X text 402 214 todo : forbid detections in some postures;
#X connect 0 0 3 0;
#X connect 0 0 16 0;
#X connect 1 0 0 0;
#X connect 2 0 1 0;
#X connect 4 0 0 1;
#X connect 5 0 6 0;
#X connect 5 0 7 0;
#X connect 9 0 15 0;
#X connect 10 0 14 0;
#X connect 11 0 5 0;
#X connect 11 1 12 0;
#X connect 12 0 13 0;
#X connect 14 0 4 0;
#X connect 14 1 5 1;
#X connect 14 2 12 1;
#X connect 15 0 2 0;
#X connect 16 0 11 0;
#X connect 17 0 18 0;
#X connect 19 0 20 0;
#X restore 38 404 pd detect-shock-type;
#X obj 38 379 r phorminx-intensity;
#X obj 228 452 hsl 162 19 0 1 0 0 empty empty empty -2 -10 0 12 #fcfcfc #000000 #000000 0 0;
#X obj 244 426 bng 19 250 50 0 empty empty empty 0 -10 0 12 #fcfcfc #000000 #000000;
#N canvas 634 69 461 377 oneeuro 0;
#N canvas 192 192 577 491 onepole 0;
#X obj 187 278 f;
#X obj 127 277 +;
#X obj 187 322 *;
#X obj 127 90 t f b, f 9;
#X obj 145 139 expr 1-$f1;
#X obj 252 89 t f f;
#X obj 127 420 outlet;
#X obj 61 30 inlet;
#X obj 252 55 inlet;
#X obj 127 166 * 1;
#X obj 87 60 t f f;
#X obj 87 376 -;
#X obj 180 420 outlet;
#X text 255 340 y[n] = x[n] * a - y[n-1] * (1 - a);
#X text 254 381 rightmost :;
#X text 256 405 value = x[n] - y[n] (cheap highpass);
#X text 254 315 leftmost :;
#X obj 127 322 t f f f;
#X connect 0 0 2 0;
#X connect 1 0 17 0;
#X connect 2 0 1 1;
#X connect 3 0 9 0;
#X connect 3 1 0 0;
#X connect 4 0 9 1;
#X connect 5 0 4 0;
#X connect 5 1 2 1;
#X connect 7 0 10 0;
#X connect 8 0 5 0;
#X connect 9 0 1 0;
#X connect 10 0 11 0;
#X connect 10 1 3 0;
#X connect 11 0 12 0;
#X connect 17 0 6 0;
#X connect 17 1 11 1;
#X connect 17 2 0 1;
#X restore 133 296 pd onepole;
#X floatatom 299 257 5 0 0 0 - - - 0;
#X obj 299 206 loadbang;
#X msg 299 232 0.75;
#X obj 104 24 inlet;
#X obj 254 88 -;
#X obj 249 55 t f f;
#X obj 107 57 t f f;
#N canvas 192 192 577 491 onepole 0;
#X obj 187 278 f;
#X obj 127 277 +;
#X obj 187 322 *;
#X obj 127 90 t f b, f 9;
#X obj 145 139 expr 1-$f1;
#X obj 252 89 t f f;
#X obj 127 420 outlet;
#X obj 61 30 inlet;
#X obj 252 55 inlet;
#X obj 127 166 * 1;
#X obj 87 60 t f f;
#X obj 87 376 -;
#X obj 180 420 outlet;
#X text 255 340 y[n] = x[n] * a - y[n-1] * (1 - a);
#X text 254 381 rightmost :;
#X text 256 405 value = x[n] - y[n] (cheap highpass);
#X text 254 315 leftmost :;
#X obj 127 322 t f f f;
#X connect 0 0 2 0;
#X connect 1 0 17 0;
#X connect 2 0 1 1;
#X connect 3 0 9 0;
#X connect 3 1 0 0;
#X connect 4 0 9 1;
#X connect 5 0 4 0;
#X connect 5 1 2 1;
#X connect 7 0 10 0;
#X connect 8 0 5 0;
#X connect 9 0 1 0;
#X connect 10 0 11 0;
#X connect 10 1 3 0;
#X connect 11 0 12 0;
#X connect 17 0 6 0;
#X connect 17 1 11 1;
#X connect 17 2 0 1;
#X restore 251 154 pd onepole;
#X floatatom 332 123 5 0 0 0 - - - 0;
#X obj 332 72 loadbang;
#X msg 332 98 0.75;
#X obj 131 329 outlet;
#X obj 385 289 outlet;
#X obj 252 126 abs;
#X obj 83 158 jl/map 0 1 0 0.9 -1;
#X obj 251 178 jl/map 0 0.2 0 0.85 1;
#X connect 0 0 12 0;
#X connect 1 0 0 1;
#X connect 2 0 3 0;
#X connect 3 0 1 0;
#X connect 4 0 7 0;
#X connect 5 0 14 0;
#X connect 6 0 5 1;
#X connect 6 1 5 0;
#X connect 7 0 0 0;
#X connect 7 1 15 0;
#X connect 8 0 16 0;
#X connect 9 0 8 1;
#X connect 10 0 11 0;
#X connect 11 0 9 0;
#X connect 14 0 8 0;
#X connect 15 0 0 1;
#X connect 15 0 13 0;
#X connect 16 0 0 1;
#X restore 127 246 pd oneeuro;
#N canvas 641 25 706 762 hit-detection 0;
#X obj 144 120 t f f;
#X obj 144 158 -;
#X obj 223 395 change;
#X floatatom 283 217 5 0 0 0 - - - 0;
#X obj 223 280 sel 1;
#X obj 274 280 sel 1;
#X msg 306 331 0;
#X obj 274 305 t b b;
#X msg 223 331 1;
#X obj 144 436 spigot;
#X obj 234 217 t f f;
#X obj 144 243 f;
#X obj 144 184 t b f;
#N canvas 160 160 331 308 onebang 0;
#X obj 125 159 spigot;
#X obj 125 187 t b b;
#X msg 195 173 0;
#X msg 164 126 1;
#X obj 103 43 inlet;
#X obj 164 43 inlet;
#X obj 112 238 outlet;
#X connect 0 0 1 0;
#X connect 1 0 6 0;
#X connect 1 1 2 0;
#X connect 2 0 0 1;
#X connect 3 0 0 1;
#X connect 4 0 0 0;
#X connect 5 0 3 0;
#X restore 274 396 pd onebang;
#X obj 274 422 t b b;
#X obj 191 495 max;
#X obj 191 521 t f f;
#X obj 266 567 f;
#X obj 223 304 t b b;
#X msg 209 469 0;
#X obj 208 84 t f f;
#X obj 283 163 loadbang;
#X obj 266 649 outlet;
#X obj 410 582 delay 200;
#X obj 361 545 loadbang;
#X msg 361 569 1;
#N canvas 160 160 435 417 oneanything 0;
#X obj 125 159 spigot;
#X msg 195 173 0;
#X msg 164 126 1;
#X obj 103 43 inlet;
#X obj 164 43 inlet;
#X obj 112 238 outlet;
#X obj 125 187 t a b;
#X connect 0 0 6 0;
#X connect 1 0 0 1;
#X connect 2 0 0 1;
#X connect 3 0 0 0;
#X connect 4 0 2 0;
#X connect 6 0 5 0;
#X connect 6 1 1 0;
#X restore 266 594 pd oneanything;
#X obj 266 620 t f b;
#X text 484 582 < anti bounce;
#X floatatom 348 217 5 0 0 0 - - - 0;
#X obj 348 163 loadbang;
#X obj 211 33 inlet;
#X obj 223 255 <;
#X obj 274 255 >;
#X msg 283 188 0;
#X msg 348 188 0.033;
#X connect 0 0 1 1;
#X connect 0 1 1 0;
#X connect 1 0 12 0;
#X connect 2 0 9 1;
#X connect 3 0 32 1;
#X connect 4 0 18 0;
#X connect 5 0 7 0;
#X connect 6 0 2 0;
#X connect 7 0 13 0;
#X connect 7 1 6 0;
#X connect 8 0 2 0;
#X connect 9 0 15 0;
#X connect 10 0 32 0;
#X connect 10 1 33 0;
#X connect 11 0 9 0;
#X connect 12 0 11 0;
#X connect 12 1 10 0;
#X connect 13 0 14 0;
#X connect 14 0 19 0;
#X connect 14 1 17 0;
#X connect 15 0 16 0;
#X connect 16 0 15 1;
#X connect 16 1 17 1;
#X connect 17 0 26 0;
#X connect 18 0 8 0;
#X connect 18 1 13 1;
#X connect 19 0 15 1;
#X connect 20 0 0 0;
#X connect 20 1 11 1;
#X connect 21 0 34 0;
#X connect 23 0 25 0;
#X connect 24 0 25 0;
#X connect 25 0 26 1;
#X connect 26 0 27 0;
#X connect 27 0 22 0;
#X connect 27 1 23 0;
#X connect 29 0 33 1;
#X connect 30 0 35 0;
#X connect 31 0 20 0;
#X connect 32 0 4 0;
#X connect 33 0 5 0;
#X connect 34 0 3 0;
#X connect 35 0 29 0;
#X restore 127 270 pd hit-detection;
#X obj 104 317 bng 19 250 50 0 empty empty empty 0 -10 0 12 #fcfcfc #000000 #000000;
#X obj 126 317 print 1;
#X obj 266 426 print 2;
#X obj 15 342 hsl 162 19 0 1 0 0 empty empty empty -2 -10 0 12 #fcfcfc #000000 #000000 0 0;
#X obj 144 93 hsl 162 19 0 127 0 0 empty empty empty -2 -10 0 12 #fcfcfc #000000 #000000 0 0;
#X connect 1 0 5 0;
#X connect 1 1 2 0;
#X connect 2 0 3 0;
#X connect 2 0 8 0;
#X connect 4 0 2 1;
#X connect 5 0 6 0;
#X connect 5 0 15 0;
#X connect 7 0 5 1;
#X connect 8 0 10 0;
#X connect 8 0 13 0;
#X connect 8 1 9 0;
#X connect 10 0 14 0;
#X connect 10 0 19 0;
#X connect 12 0 11 0;
#X connect 15 0 16 0;
#X connect 16 0 17 0;
#X connect 16 0 18 0;
#X connect 16 0 20 0;
#X connect 21 0 2 0;
#X restore 282 149 pd archives+tests;
#X text 241 402 [];
#X obj 264 381 tgl 19 0 empty empty empty 0 -10 0 12 #fcfcfc #000000 #000000 0 1;
#X obj 287 381 tgl 19 0 empty empty empty 0 -10 0 12 #fcfcfc #000000 #000000 0 1;
#X text 265 402 <<;
#X text 288 402 >>;
#X text 220 402 >;
#X obj 856 240 unpack f f;
#X floatatom 841 267 5 0 0 0 - - - 0;
#X floatatom 884 266 5 0 0 0 - - - 0;
#X obj 214 429 r uc33-buttons;
#X obj 214 455 route 10 11 12 13;
#X obj 241 381 bng 19 250 50 0 empty empty empty 0 -10 0 12 #fcfcfc #000000 #000000;
#X obj 218 381 bng 19 250 50 0 empty empty empty 0 -10 0 12 #fcfcfc #000000 #000000;
#X obj 184 494 sel 1;
#X obj 228 494 sel 1;
#X obj 178 578 s maintrack-play-i;
#X obj 215 553 s maintrack-stop-i;
#X obj 789 577 s maintrack-volume-i;
#X obj 788 551 / 127;
#X obj 272 530 s maintrack-loop-i;
#X obj 271 494 sel 1;
#X obj 418 500 ctlin 18 1;
#X obj 418 524 / 127;
#X obj 418 548 s start-pos-maintrack-i;
#X text 497 500 < just a CC input;
#X obj 402 378 r uc33-sliders;
#X obj 400 404 route 0;
#X obj 401 430 / 127;
#X obj 402 456 s tapis-volume-i;
#X obj 128 74 - 16;
#X obj 479 83 oscparse;
#X msg 522 20 port 9000;
#X obj 479 54 netreceive -u -b 9000;
#X obj 405 16 list trim;
#X obj 485 111 s teensy-capacitive-sensors;
#X obj 336 57 unpack s f;
#X obj 341 83 f;
#X obj 354 122 pack f f;
#X connect 0 0 1 0;
#X connect 0 1 69 0;
#X connect 1 0 2 0;
#X connect 3 0 4 0;
#X connect 3 1 4 1;
#X connect 3 2 13 0;
#X connect 4 0 5 0;
#X connect 5 0 6 0;
#X connect 6 0 19 0;
#X connect 7 0 10 0;
#X connect 8 0 26 0;
#X connect 9 0 7 1;
#X connect 10 0 8 0;
#X connect 11 0 7 0;
#X connect 11 1 9 0;
#X connect 11 2 38 0;
#X connect 13 0 4 2;
#X connect 15 0 16 0;
#X connect 15 1 17 0;
#X connect 15 2 18 0;
#X connect 15 3 21 0;
#X connect 15 4 22 0;
#X connect 15 5 23 0;
#X connect 15 7 58 0;
#X connect 15 8 24 0;
#X connect 20 0 15 0;
#X connect 27 0 28 0;
#X connect 27 1 29 0;
#X connect 27 2 30 0;
#X connect 27 3 31 0;
#X connect 27 4 32 0;
#X connect 27 5 33 0;
#X connect 27 6 34 0;
#X connect 27 7 35 0;
#X connect 27 8 36 0;
#X connect 27 9 46 0;
#X connect 37 0 27 0;
#X connect 38 0 7 2;
#X connect 46 0 47 0;
#X connect 46 1 48 0;
#X connect 49 0 50 0;
#X connect 50 0 53 0;
#X connect 50 1 54 0;
#X connect 50 2 60 0;
#X connect 53 0 55 0;
#X connect 54 0 56 0;
#X connect 58 0 57 0;
#X connect 61 0 62 0;
#X connect 62 0 63 0;
#X connect 65 0 66 0;
#X connect 66 0 67 0;
#X connect 67 0 68 0;
#X connect 69 0 1 1;
#X connect 70 0 73 0;
#X connect 71 0 72 0;
#X connect 72 0 70 0;
#X connect 73 0 75 0;
#X connect 75 0 76 0;
#X connect 75 1 77 1;
#X connect 76 0 77 0;
#X connect 77 0 74 0;
#X restore 512 524 pd MIDI-input;
#X obj 111 510 openpanel 1;
#X obj 111 487 bng 19 250 50 0 empty empty empty 0 -10 0 12 #fcfcfc #000000 #000000;
#N canvas 300 39 918 667 teensy-settings 0;
#X obj 15 13 capa-preprocessing-interface capa nuit;
#X obj 698 607 s capa-preset-cmd;
#X obj 698 13 project/preset-manager capa-presets nuit;
#X connect 2 0 1 0;
#X restore 509 299 pd teensy-settings;
#X obj 548 369 project/file-manager nuit;
#X msg 509 332 open;
#X msg 548 332 save;
#X msg 587 332 saveas;
#X msg 120 556 symbol ./_samples_tapis;
#N canvas 295 320 450 278 (subpatch) 0;
#X array maintrack-left 1.27835e+07 float 2;
#X coords 0 1 1.27835e+07 -1 600 60 1 0 0;
#X restore 109 62 graph;
#N canvas 295 320 450 278 (subpatch) 0;
#X array maintrack-right 1.27835e+07 float 2;
#X coords 0 1 1.27835e+07 -1 600 60 1 0 0;
#X restore 109 122 graph;
#X obj 112 182 hsl 595 8 0 1 0 0 scroll-maintrack-o scroll-maintrack-i empty -2 -10 0 12 #fcfcfc #000000 #000000 0 0;
#X obj 690 213 bng 19 250 50 0 maintrack-loadfile-o maintrack-loadfile-i load -30 10 0 12 #fcfcfc #000000 #000000;
#N canvas 467 285 563 412 dac 0;
#X obj 244 70 catch~ speaker-6-out;
#X obj 222 92 catch~ speaker-5-out;
#X obj 200 114 catch~ speaker-4-out;
#X obj 178 136 catch~ speaker-3-out;
#X obj 156 158 catch~ speaker-2-out;
#X obj 135 180 catch~ speaker-1-out;
#X obj 219 327 *~;
#X obj 249 323 *~;
#X obj 279 318 *~;
#X obj 309 314 *~;
#X obj 339 310 *~;
#X obj 369 305 *~;
#X obj 383 205 line~;
#X msg 383 182 \$1 10;
#X obj 384 133 r master-volume-o;
#X obj 443 164 loadbang;
#X msg 443 187 1;
#X obj 384 107 hsl 162 19 0 1 0 0 master-volume-o master-volume-i empty -2 -10 0 12 #fcfcfc #000000 #000000 0 0;
#X obj 269 48 catch~ speaker-7-out;
#X obj 399 302 *~;
#X obj 235 367 dac~ 1 2 3 4 5 6 7;
#X connect 0 0 11 0;
#X connect 1 0 10 0;
#X connect 2 0 9 0;
#X connect 3 0 8 0;
#X connect 4 0 7 0;
#X connect 5 0 6 0;
#X connect 6 0 20 0;
#X connect 7 0 20 1;
#X connect 8 0 20 2;
#X connect 9 0 20 3;
#X connect 10 0 20 4;
#X connect 11 0 20 5;
#X connect 12 0 6 1;
#X connect 12 0 7 1;
#X connect 12 0 8 1;
#X connect 12 0 9 1;
#X connect 12 0 10 1;
#X connect 12 0 11 1;
#X connect 12 0 19 1;
#X connect 13 0 12 0;
#X connect 15 0 16 0;
#X connect 16 0 13 0;
#X connect 18 0 19 0;
#X connect 19 0 20 6;
#X restore 512 547 pd dac;
#X obj 132 213 bng 19 250 50 0 maintrack-stop-o maintrack-stop-i empty 0 -10 0 12 #fcfcfc #000000 #000000;
#X obj 109 213 bng 19 250 50 0 maintrack-play-o maintrack-play-i empty 0 -10 0 12 #fcfcfc #000000 #000000;
#X obj 181 213 hsl 162 19 0 1 0 0 maintrack-volume-o maintrack-volume-i volume 4 10 0 10 #fcfcfc #000000 #000000 0 0;
#X obj 155 213 tgl 19 0 maintrack-loop-o maintrack-loop-i empty 0 -10 0 12 #fcfcfc #000000 #000000 0 1;
#X obj 112 190 hsl 595 19 0 1 0 0 start-pos-maintrack-o start-pos-maintrack-i scroll 5 10 0 10 #fcfcfc #000000 #000000 0 0;
#X floatatom 555 213 5 0 0 1 ms maintrack-time-msec-i - 0;
#X floatatom 508 213 5 0 0 1 s maintrack-time-sec-i - 0;
#X floatatom 460 213 5 0 0 1 m maintrack-time-min-i - 0;
#X floatatom 412 213 5 0 0 1 h maintrack-time-hrs-i - 0;
#X text 133 214 [];
#X text 114 213 >;
#X text 159 214 ∞;
#N canvas 471 125 742 703 maintrack-player-routing 0;
#X obj 437 25 project/preset-manager routing nuit;
#X obj 27 24 acousmoroute routoutou nuit;
#X obj 437 620 s routoutou-preset-cmd;
#X connect 0 0 2 0;
#X restore 509 277 pd maintrack-player-routing;
#X obj 120 533 loadbang;
#N canvas 116 110 925 321 maintrack-player-component 1;
#X obj 355 28 openpanel;
#N canvas 990 445 450 300 load-maintrack 0;
#X obj 65 116 soundfiler;
#X obj 132 165 * 0.001;
#X msg 132 141 \$1;
#X obj 65 201 /;
#X obj 65 51 inlet;
#X obj 65 230 s maintrack-duration;
#X floatatom 109 203 10 0 0 0 - - - 0;
#X msg 65 93 read -resize \$1 maintrack-left maintrack-right;
#X connect 0 0 3 0;
#X connect 0 1 2 0;
#X connect 1 0 3 1;
#X connect 2 0 1 0;
#X connect 3 0 5 0;
#X connect 3 0 6 0;
#X connect 4 0 7 0;
#X connect 7 0 0 0;
#X restore 359 128 pd load-maintrack;
#N canvas 429 446 450 402 display-position-date 0;
#X obj 124 98 t f f;
#X obj 124 74 int;
#X obj 239 288 % 1000;
#X obj 124 135 / 1000;
#X obj 124 210 / 60;
#X obj 124 186 t f f;
#X obj 201 289 % 60;
#X obj 124 262 t f f;
#X obj 163 289 % 60;
#X obj 124 162 int;
#X obj 124 237 int;
#X obj 125 311 int;
#X obj 125 364 outlet;
#X obj 163 340 outlet;
#X obj 201 364 outlet;
#X obj 239 340 outlet;
#X obj 124 31 inlet;
#X obj 125 288 / 60;
#X connect 0 0 3 0;
#X connect 0 1 2 0;
#X connect 1 0 0 0;
#X connect 2 0 15 0;
#X connect 3 0 9 0;
#X connect 4 0 10 0;
#X connect 5 0 4 0;
#X connect 5 1 6 0;
#X connect 6 0 14 0;
#X connect 7 0 17 0;
#X connect 7 1 8 0;
#X connect 8 0 13 0;
#X connect 9 0 5 0;
#X connect 10 0 7 0;
#X connect 11 0 12 0;
#X connect 16 0 1 0;
#X connect 17 0 11 0;
#X restore 38 128 pd display-position-date;
#X obj 355 5 r maintrack-loadfile-o;
#N canvas 579 195 700 545 routing-to-faders 0;
#X obj 115 288 jl/router~ 2 6;
#X obj 115 390 *~;
#X obj 144 390 *~;
#X obj 173 390 *~;
#X obj 202 390 *~;
#X obj 231 390 *~;
#X obj 260 390 *~;
#X obj 301 265 line~;
#X obj 343 265 line~;
#X obj 385 265 line~;
#X obj 427 265 line~;
#X obj 469 265 line~;
#X obj 511 265 line~;
#X msg 301 242 \$1 10;
#X msg 343 242 \$1 10;
#X msg 385 242 \$1 10;
#X msg 427 242 \$1 10;
#X msg 469 242 \$1 10;
#X msg 511 242 \$1 10;
#X obj 234 51 r uc33-sliders;
#X obj 234 77 route 0;
#X obj 123 138 inlet~;
#X obj 172 138 inlet~;
#X obj 67 492 outlet~;
#X obj 123 492 outlet~;
#X obj 179 492 outlet~;
#X obj 235 492 outlet~;
#X obj 291 492 outlet~;
#X obj 347 492 outlet~;
#X floatatom 472 399 5 0 0 0 - - - 0;
#X floatatom 532 392 5 0 0 0 - - - 0;
#X obj 290 215 jl/map 0 127 0 1;
#X obj 330 189 jl/map 0 127 0 1;
#X obj 376 164 jl/map 0 127 0 1;
#X obj 424 216 jl/map 0 127 0 1;
#X obj 475 190 jl/map 0 127 0 1;
#X obj 525 160 jl/map 0 127 0 1;
#X obj 350 105 route 1 2 3 4 5 6 42;
#X msg 470 422 42 xfactor \$1;
#X msg 515 447 42 sfactor \$1;
#X msg 540 355 -0.25;
#X msg 587 355 0.5;
#X obj 561 326 loadbang;
#X obj 497 472 s uc33-sliders;
#X msg 584 400 0;
#X obj 31 20 r routoutou-inputmatrix-o;
#X connect 0 0 1 0;
#X connect 0 1 2 0;
#X connect 0 2 3 0;
#X connect 0 3 4 0;
#X connect 0 4 5 0;
#X connect 0 5 6 0;
#X connect 1 0 23 0;
#X connect 2 0 24 0;
#X connect 3 0 25 0;
#X connect 4 0 26 0;
#X connect 5 0 27 0;
#X connect 6 0 28 0;
#X connect 7 0 1 1;
#X connect 8 0 2 1;
#X connect 9 0 3 1;
#X connect 10 0 4 1;
#X connect 11 0 5 1;
#X connect 12 0 6 1;
#X connect 13 0 7 0;
#X connect 14 0 8 0;
#X connect 15 0 9 0;
#X connect 16 0 10 0;
#X connect 17 0 11 0;
#X connect 18 0 12 0;
#X connect 19 0 20 0;
#X connect 20 1 37 0;
#X connect 21 0 0 1;
#X connect 22 0 0 2;
#X connect 29 0 38 0;
#X connect 30 0 39 0;
#X connect 31 0 13 0;
#X connect 32 0 14 0;
#X connect 33 0 15 0;
#X connect 34 0 16 0;
#X connect 35 0 17 0;
#X connect 36 0 18 0;
#X connect 37 0 31 0;
#X connect 37 1 32 0;
#X connect 37 2 33 0;
#X connect 37 3 34 0;
#X connect 37 4 35 0;
#X connect 37 5 36 0;
#X connect 37 6 31 0;
#X connect 37 6 32 0;
#X connect 37 6 33 0;
#X connect 37 6 34 0;
#X connect 37 6 35 0;
#X connect 37 6 36 0;
#X connect 38 0 43 0;
#X connect 39 0 43 0;
#X connect 40 0 29 0;
#X connect 41 0 30 0;
#X connect 42 0 41 0;
#X connect 42 0 40 0;
#X connect 44 0 30 0;
#X connect 44 0 29 0;
#X connect 45 0 0 0;
#X restore 360 236 pd routing-to-faders;
#N canvas 739 96 566 569 routing-from-faders 0;
#X obj 141 105 inlet~;
#X obj 190 105 inlet~;
#X obj 133 255 jl/router~ 6 6;
#X obj 239 105 inlet~;
#X obj 288 105 inlet~;
#X obj 337 105 inlet~;
#X obj 386 105 inlet~;
#X obj 96 500 throw~ speaker-1-out;
#X obj 144 476 throw~ speaker-2-out;
#X obj 197 450 throw~ speaker-3-out;
#X obj 257 426 throw~ speaker-4-out;
#X obj 303 402 throw~ speaker-5-out;
#X obj 354 378 throw~ speaker-6-out;
#X obj 372 272 sig~ 60;
#X obj 352 308 vcf~ 0;
#X obj 362 234 *~ 0.12;
#X obj 382 354 throw~ speaker-7-out;
#X obj 69 67 r routoutou-outputmatrix-o;
#X connect 0 0 2 1;
#X connect 1 0 2 2;
#X connect 2 0 7 0;
#X connect 2 0 15 0;
#X connect 2 1 8 0;
#X connect 2 1 15 0;
#X connect 2 2 9 0;
#X connect 2 2 15 0;
#X connect 2 3 10 0;
#X connect 2 3 15 0;
#X connect 2 4 11 0;
#X connect 2 4 15 0;
#X connect 2 5 12 0;
#X connect 2 5 15 0;
#X connect 3 0 2 3;
#X connect 4 0 2 4;
#X connect 5 0 2 5;
#X connect 6 0 2 6;
#X connect 13 0 14 1;
#X connect 14 0 16 0;
#X connect 15 0 14 0;
#X connect 17 0 2 0;
#X restore 354 269 pd routing-from-faders;
#X obj 360 209 r~ maintrack-audio-out-left;
#X obj 358 181 r~ maintrack-audio-out-right;
#X obj 38 104 r scroll-position;
#X obj 89 234 s maintrack-time-hrs-i;
#X obj 113 211 s maintrack-time-min-i;
#X obj 148 188 s maintrack-time-sec-i;
#X obj 183 165 s maintrack-time-msec-i;
#N canvas 570 126 815 661 maintrack-player-engine-and-ui 1;
#X obj 59 266 jl/gbend~ maintrack-left;
#X obj 594 416 snapshot~;
#X obj 594 393 metro 20;
#X obj 594 370 tgl 19 0 empty empty empty 0 -10 0 12 #fcfcfc #000000 #000000 0 1;
#X msg 594 440 position;
#X obj 93 292 jl/gbend~ maintrack-right;
#X obj 63 576 s scroll-maintrack-i;
#X obj 73 475 r maintrack-duration;
#X obj 63 428 route position;
#X obj 63 530 /;
#X obj 73 498 t b f;
#X msg 108 81 end \$1;
#X obj 108 59 r maintrack-duration;
#X msg 63 553 set \$1;
#X obj 577 264 t b b;
#X msg 609 315 1;
#X msg 573 316 0;
#X obj 515 233 t f b;
#X obj 594 346 t a;
#X obj 441 353 r maintrack-duration;
#X obj 441 376 t b f;
#X obj 465 409 *;
#X msg 449 436 beg \$1;
#X obj 334 379 spigot;
#X obj 533 180 r scroll-maintrack-o;
#X obj 400 478 t a;
#X obj 129 177 t a a a;
#X msg 332 205 0;
#X msg 299 204 1;
#X obj 351 322 f;
#X obj 238 120 route bang;
#X obj 387 321 tgl 19 0 empty empty empty 0 -10 0 12 #fcfcfc #000000 #000000 0 1;
#X obj 609 290 delay 200;
#X obj 58 10 loadbang;
#X obj 490 207 t b f;
#X obj 190 499 sel 0;
#X msg 37 99 loop \$1;
#X obj 37 71 tgl 19 0 empty empty empty 0 -10 0 12 #fcfcfc #000000 #000000 0 1;
#X msg 373 200 0;
#X msg 58 34 pitch 0 \, loop 0 \, rvs 0 \, fade 5 \, interrupt 5 \, beg 0;
#X obj 594 464 s to-maintrack-player-left;
#X obj 82 211 r to-maintrack-player-left;
#X obj 97 234 r to-maintrack-player-right;
#X obj 173 90 r to-maintrack-player;
#X obj 400 511 s to-maintrack-player;
#X msg 334 405 bang;
#X obj 433 83 r maintrack-play-o;
#X obj 449 106 r maintrack-stop-o;
#X obj 470 128 r maintrack-loop-o;
#X msg 472 152 loop \$1;
#X msg 429 137 stop;
#X obj 586 64 s to-maintrack-player;
#X obj 543 545 r start-pos-maintrack-o;
#X obj 543 569 s scroll-maintrack-i;
#X obj 193 530 f;
#X obj 478 486 s last-manual-scroll-value;
#X obj 258 621 r last-manual-scroll-value;
#X obj 312 145 route float;
#X obj 321 169 sel 0 1 2;
#X obj 52 379 s~ maintrack-audio-out-left;
#X obj 89 353 s~ maintrack-audio-out-right;
#X obj 24 484 t f f;
#X obj 116 602 s scroll-position;
#X obj 462 460 s scroll-position;
#X obj 570 213 r start-pos-maintrack-o;
#X obj 312 257 r maintrack-volume-o;
#X obj 56 328 *~;
#X obj 86 323 *~;
#X obj 287 319 line~;
#X msg 287 296 \$1 10;
#X obj 308 577 s start-pos-maintrack-i;
#X msg 308 553 0;
#X obj 308 529 loadbang;
#X connect 0 0 66 0;
#X connect 0 1 8 0;
#X connect 0 1 57 0;
#X connect 1 0 4 0;
#X connect 2 0 1 0;
#X connect 3 0 2 0;
#X connect 5 0 67 0;
#X connect 7 0 10 0;
#X connect 8 0 61 0;
#X connect 9 0 13 0;
#X connect 10 0 9 0;
#X connect 10 1 9 1;
#X connect 11 0 26 0;
#X connect 12 0 11 0;
#X connect 13 0 6 0;
#X connect 14 0 16 0;
#X connect 14 1 32 0;
#X connect 15 0 18 0;
#X connect 16 0 18 0;
#X connect 17 0 21 0;
#X connect 17 1 14 0;
#X connect 18 0 3 0;
#X connect 19 0 20 0;
#X connect 20 0 21 0;
#X connect 20 1 21 1;
#X connect 21 0 22 0;
#X connect 21 0 55 0;
#X connect 21 0 63 0;
#X connect 22 0 25 0;
#X connect 23 0 45 0;
#X connect 25 0 44 0;
#X connect 26 0 0 0;
#X connect 26 1 5 0;
#X connect 26 2 30 0;
#X connect 27 0 29 0;
#X connect 28 0 29 0;
#X connect 29 0 31 0;
#X connect 29 0 35 0;
#X connect 29 0 23 1;
#X connect 30 0 28 0;
#X connect 32 0 15 0;
#X connect 33 0 39 0;
#X connect 34 0 23 0;
#X connect 34 1 17 0;
#X connect 35 0 54 0;
#X connect 36 0 26 0;
#X connect 37 0 36 0;
#X connect 39 0 26 0;
#X connect 41 0 0 0;
#X connect 42 0 5 0;
#X connect 43 0 26 0;
#X connect 45 0 25 0;
#X connect 46 0 51 0;
#X connect 47 0 50 0;
#X connect 48 0 49 0;
#X connect 49 0 51 0;
#X connect 50 0 51 0;
#X connect 52 0 53 0;
#X connect 54 0 22 0;
#X connect 54 0 9 0;
#X connect 54 0 62 0;
#X connect 56 0 54 1;
#X connect 57 0 58 0;
#X connect 58 0 27 0;
#X connect 58 1 27 0;
#X connect 58 2 38 0;
#X connect 61 0 9 0;
#X connect 61 1 62 0;
#X connect 64 0 34 0;
#X connect 65 0 69 0;
#X connect 66 0 59 0;
#X connect 67 0 60 0;
#X connect 68 0 66 1;
#X connect 68 0 67 1;
#X connect 69 0 68 0;
#X connect 71 0 70 0;
#X connect 72 0 71 0;
#X restore 358 153 pd maintrack-player-engine-and-ui;
#X msg 429 28 set \$1;
#X msg 429 50 /Users/scrime/Projects/git-repositories/scrime-u-bordeaux/nuit-des-escaliers/paliers\ et\ portes.wav;
#X obj 525 13 loadbang;
#X obj 429 88 symbol;
#X obj 527 86 inlet;
#X connect 0 0 14 0;
#X connect 0 0 1 0;
#X connect 2 0 9 0;
#X connect 2 1 10 0;
#X connect 2 2 11 0;
#X connect 2 3 12 0;
#X connect 3 0 0 0;
#X connect 4 0 5 0;
#X connect 4 1 5 1;
#X connect 4 2 5 2;
#X connect 4 3 5 3;
#X connect 4 4 5 4;
#X connect 4 5 5 5;
#X connect 6 0 4 0;
#X connect 7 0 4 1;
#X connect 8 0 2 0;
#X connect 14 0 15 0;
#X connect 15 0 17 0;
#X connect 16 0 15 0;
#X connect 17 0 1 0;
#X connect 18 0 17 0;
#X restore 549 399 pd maintrack-player-component;
#X msg 110 397 all volume \$1;
#X obj 113 373 hsl 162 19 0 1 0 0 tapis-volume-o tapis-volume-i empty -2 -10 0 12 #fcfcfc #000000 #000000 0 0;
#N canvas 423 142 928 704 stereo-players 0;
#X obj 87 189 stereo-x-player A samples;
#X obj 39 42 route all;
#X obj 116 163 stereo-x-player B samples;
#X obj 147 140 stereo-x-player C samples;
#X obj 176 114 stereo-x-player D samples;
#X obj 84 80 route 0 1 2 3;
#X obj 34 94 t a;
#X obj 38 11 inlet;
#X obj 366 327 line~;
#X obj 286 374 *~;
#X obj 268 396 *~;
#X obj 250 418 *~;
#X obj 229 440 *~;
#X obj 207 462 *~;
#X obj 189 485 *~;
#X msg 372 296 \$1 10;
#X floatatom 377 269 5 0 0 0 - - - 0;
#X obj 383 394 env~ 512;
#X obj 383 444 vsl 19 162 0 1 0 0 empty empty empty 0 -9 0 12 #fcfcfc #000000 #000000 0 1;
#X obj 383 418 dbtorms;
#X obj 447 394 env~ 512;
#X obj 447 444 vsl 19 162 0 1 0 0 empty empty empty 0 -9 0 12 #fcfcfc #000000 #000000 0 1;
#X obj 447 418 dbtorms;
#X obj 511 393 env~ 512;
#X obj 511 443 vsl 19 162 0 1 0 0 empty empty empty 0 -9 0 12 #fcfcfc #000000 #000000 0 1;
#X obj 511 417 dbtorms;
#X obj 575 393 env~ 512;
#X obj 575 443 vsl 19 162 0 1 0 0 empty empty empty 0 -9 0 12 #fcfcfc #000000 #000000 0 1;
#X obj 575 417 dbtorms;
#X obj 638 393 env~ 512;
#X obj 638 443 vsl 19 162 0 1 0 0 empty empty empty 0 -9 0 12 #fcfcfc #000000 #000000 0 1;
#X obj 638 417 dbtorms;
#X obj 702 393 env~ 512;
#X obj 702 443 vsl 19 162 0 1 0 0 empty empty empty 0 -9 0 12 #fcfcfc #000000 #000000 0 1;
#X obj 702 417 dbtorms;
#X obj 378 220 loadbang;
#X msg 167 27 all fade \$1;
#X floatatom 167 4 5 0 0 0 - - - 0;
#X msg 295 83 all stop;
#X obj 260 14 loadbang;
#X msg 261 36 1000;
#X obj 193 584 dac~ 1 2 3 4 5 6 7;
#X obj 341 516 sig~ 60;
#X obj 321 552 vcf~ 0;
#X obj 331 478 *~ 0.12;
#X msg 378 243 0.75;
#X connect 0 0 14 0;
#X connect 0 1 13 0;
#X connect 0 2 12 0;
#X connect 0 3 11 0;
#X connect 0 4 10 0;
#X connect 0 5 9 0;
#X connect 1 0 6 0;
#X connect 1 1 5 0;
#X connect 2 0 14 0;
#X connect 2 1 13 0;
#X connect 2 2 12 0;
#X connect 2 3 11 0;
#X connect 2 4 10 0;
#X connect 2 5 9 0;
#X connect 3 0 14 0;
#X connect 3 1 13 0;
#X connect 3 2 12 0;
#X connect 3 3 11 0;
#X connect 3 4 10 0;
#X connect 3 5 9 0;
#X connect 4 0 14 0;
#X connect 4 1 13 0;
#X connect 4 2 12 0;
#X connect 4 3 11 0;
#X connect 4 4 10 0;
#X connect 4 5 9 0;
#X connect 5 0 0 0;
#X connect 5 1 2 0;
#X connect 5 2 3 0;
#X connect 5 3 4 0;
#X connect 6 0 4 0;
#X connect 6 0 0 0;
#X connect 6 0 2 0;
#X connect 6 0 3 0;
#X connect 7 0 1 0;
#X connect 8 0 9 1;
#X connect 8 0 10 1;
#X connect 8 0 11 1;
#X connect 8 0 12 1;
#X connect 8 0 13 1;
#X connect 8 0 14 1;
#X connect 9 0 32 0;
#X connect 9 0 41 5;
#X connect 9 0 44 0;
#X connect 10 0 29 0;
#X connect 10 0 41 4;
#X connect 10 0 44 0;
#X connect 11 0 26 0;
#X connect 11 0 41 3;
#X connect 11 0 44 0;
#X connect 12 0 23 0;
#X connect 12 0 41 2;
#X connect 12 0 44 0;
#X connect 13 0 20 0;
#X connect 13 0 41 1;
#X connect 13 0 44 0;
#X connect 14 0 17 0;
#X connect 14 0 41 0;
#X connect 14 0 44 0;
#X connect 15 0 8 0;
#X connect 16 0 15 0;
#X connect 17 0 19 0;
#X connect 19 0 18 0;
#X connect 20 0 22 0;
#X connect 22 0 21 0;
#X connect 23 0 25 0;
#X connect 25 0 24 0;
#X connect 26 0 28 0;
#X connect 28 0 27 0;
#X connect 29 0 31 0;
#X connect 31 0 30 0;
#X connect 32 0 34 0;
#X connect 34 0 33 0;
#X connect 35 0 45 0;
#X connect 36 0 1 0;
#X connect 37 0 36 0;
#X connect 38 0 1 0;
#X connect 39 0 40 0;
#X connect 40 0 37 0;
#X connect 42 0 43 1;
#X connect 43 0 41 6;
#X connect 44 0 43 0;
#X connect 45 0 16 0;
#X restore 110 459 pd stereo-players;
#X obj 111 582 stereo-soundbank samples 11;
#N canvas 92 117 674 461 tapis-players-control 0;
#X obj 383 87 r capa-out;
#X msg 149 106 1 \$1;
#X msg 188 106 2 \$1;
#X msg 227 106 3 \$1;
#X msg 266 106 4 \$1;
#X obj 149 82 tgl 19 0 empty empty empty 0 -10 0 12 #fcfcfc #000000 #000000 0 1;
#X obj 188 82 tgl 19 0 empty empty empty 0 -10 0 12 #fcfcfc #000000 #000000 0 1;
#X obj 227 82 tgl 19 0 empty empty empty 0 -10 0 12 #fcfcfc #000000 #000000 0 1;
#X obj 266 82 tgl 19 0 empty empty empty 0 -10 0 12 #fcfcfc #000000 #000000 0 1;
#X obj 214 159 t a;
#X obj 305 82 tgl 19 0 empty empty empty 0 -10 0 12 #fcfcfc #000000 #000000 0 1;
#X msg 305 106 5 \$1;
#X obj 269 195 poly 4 1;
#X listbox 268 279 20 0 0 0 - - - 0;
#X obj 268 248 pack f f f;
#X obj 268 314 print poly;
#X obj 269 223 - 1;
#X obj 301 223 - 1;
#X text 351 247 target index \, sensor index \, sensor value;
#X msg 113 190 \$3 \$1 \$2;
#X obj 113 213 route 1 0;
#X msg 94 311 \$1 set \$2;
#X obj 94 289 pack f f;
#X obj 144 264 random 11;
#X obj 111 239 t f b;
#X msg 173 310 \$1 stop;
#X obj 141 379 t a;
#X obj 184 239 t f;
#N canvas 63 88 514 426 smth-like-poly 0;
#X obj 201 185 f;
#X obj 262 193 + 1;
#X obj 262 217 mod;
#X floatatom 326 156 5 0 0 0 - - - 0;
#X msg 170 88 \$2 \$1;
#X obj 170 111 route 1;
#X obj 170 134 t b f;
#X obj 130 174 route;
#X obj 133 61 t a a;
#X obj 130 199 sel 0;
#X obj 149 267 f;
#X obj 201 229 t f f f;
#X msg 179 303 \$1 0;
#X msg 219 303 \$1 1;
#X obj 305 269 route 0 1 2 3;
#X obj 301 304 tgl 19 0 empty empty empty 0 -10 0 12 #fcfcfc #000000 #000000 0 1;
#X obj 327 304 tgl 19 0 empty empty empty 0 -10 0 12 #fcfcfc #000000 #000000 0 1;
#X obj 354 304 tgl 19 0 empty empty empty 0 -10 0 12 #fcfcfc #000000 #000000 0 1;
#X obj 381 305 tgl 19 0 empty empty empty 0 -10 0 12 #fcfcfc #000000 #000000 0 1;
#X obj 179 335 t a;
#X connect 0 0 11 0;
#X connect 1 0 2 0;
#X connect 2 0 0 1;
#X connect 3 0 2 1;
#X connect 4 0 5 0;
#X connect 5 0 6 0;
#X connect 6 0 0 0;
#X connect 6 1 7 1;
#X connect 7 0 9 0;
#X connect 8 0 7 0;
#X connect 8 1 4 0;
#X connect 9 0 10 0;
#X connect 10 0 12 0;
#X connect 11 0 10 1;
#X connect 11 1 13 0;
#X connect 11 2 1 0;
#X connect 12 0 19 0;
#X connect 13 0 19 0;
#X connect 14 0 15 0;
#X connect 14 1 16 0;
#X connect 14 2 17 0;
#X connect 14 3 18 0;
#X connect 19 0 14 0;
#X restore 352 316 pd smth-like-poly;
#X obj 143 406 outlet;
#X connect 0 0 12 0;
#X connect 1 0 9 0;
#X connect 2 0 9 0;
#X connect 3 0 9 0;
#X connect 4 0 9 0;
#X connect 5 0 1 0;
#X connect 6 0 2 0;
#X connect 7 0 3 0;
#X connect 8 0 4 0;
#X connect 9 0 12 0;
#X connect 10 0 11 0;
#X connect 11 0 9 0;
#X connect 12 0 16 0;
#X connect 12 1 17 0;
#X connect 12 2 14 2;
#X connect 14 0 13 0;
#X connect 14 0 19 0;
#X connect 16 0 14 0;
#X connect 17 0 14 1;
#X connect 19 0 20 0;
#X connect 20 0 24 0;
#X connect 20 1 27 0;
#X connect 21 0 26 0;
#X connect 22 0 21 0;
#X connect 23 0 22 1;
#X connect 24 0 22 0;
#X connect 24 1 23 0;
#X connect 25 0 26 0;
#X connect 26 0 29 0;
#X connect 27 0 25 0;
#X restore 126 425 pd tapis-players-control;
#X obj 110 287 r capa-out;
#X obj 110 335 tgl 19 0 empty empty empty 0 -10 0 12 #fcfcfc #000000 #000000 0 1;
#X obj 132 335 tgl 19 0 empty empty empty 0 -10 0 12 #fcfcfc #000000 #000000 0 1;
#X obj 154 335 tgl 19 0 empty empty empty 0 -10 0 12 #fcfcfc #000000 #000000 0 1;
#X obj 176 335 tgl 19 0 empty empty empty 0 -10 0 12 #fcfcfc #000000 #000000 0 1;
#X obj 198 335 tgl 19 0 empty empty empty 0 -10 0 12 #fcfcfc #000000 #000000 0 1;
#X obj 110 311 route 1 2 3 4 5 6 7 8 9 10 11;
#X connect 1 0 32 0;
#X connect 2 0 1 0;
#X connect 5 0 4 0;
#X connect 6 0 4 0;
#X connect 7 0 4 0;
#X connect 8 0 32 0;
#X connect 27 0 8 0;
#X connect 29 0 31 0;
#X connect 30 0 29 0;
#X connect 33 0 31 0;
#X connect 40 0 35 0;
#X connect 40 1 36 0;
#X connect 40 2 37 0;
#X connect 40 3 38 0;
#X connect 40 4 39 0;
