#N canvas 611 269 829 603 12;
#X obj 607 247 *~ 1;
#X obj 249 538 outlet~;
#X obj 324 538 outlet~;
#X msg 449 275 set \$1;
#X msg 392 275 set \$1;
#X obj 285 312 t a a;
#X msg 306 275 end \$1;
#X obj 369 191 t f f f;
#X obj 266 451 *~;
#X obj 341 451 *~;
#X obj 144 334 line~;
#X msg 144 309 \$1 10;
#X obj 608 90 inlet~ transposition;
#X obj 144 76 inlet gbend-message;
#X obj 306 248 text get \$2;
#X obj 392 248 makefilename \$2-%d-L;
#X obj 449 223 makefilename \$2-%d-R;
#X msg 165 238 1;
#X obj 109 254 t f b;
#X obj 100 179 t b b;
#X obj 249 497 *~;
#X obj 324 497 *~;
#X obj 178 430 line~;
#X msg 178 405 \$1 10;
#X obj 109 230 f 1;
#X obj 257 255 t a;
#X obj 144 103 route bang gain volume set;
#X obj 387 389 jl/gbend~;
#X obj 285 389 jl/gbend~;
#X connect 0 0 27 0;
#X connect 0 0 28 0;
#X connect 3 0 27 0;
#X connect 4 0 28 0;
#X connect 5 0 28 0;
#X connect 5 1 27 0;
#X connect 6 0 5 0;
#X connect 7 0 14 0;
#X connect 7 1 15 0;
#X connect 7 2 16 0;
#X connect 8 0 20 1;
#X connect 9 0 21 1;
#X connect 10 0 8 0;
#X connect 10 0 9 0;
#X connect 11 0 10 0;
#X connect 12 0 0 0;
#X connect 13 0 26 0;
#X connect 14 0 6 0;
#X connect 15 0 4 0;
#X connect 16 0 3 0;
#X connect 17 0 24 1;
#X connect 18 0 11 0;
#X connect 18 1 17 0;
#X connect 19 0 24 0;
#X connect 19 1 25 0;
#X connect 20 0 1 0;
#X connect 21 0 2 0;
#X connect 22 0 20 0;
#X connect 22 0 21 0;
#X connect 23 0 22 0;
#X connect 24 0 18 0;
#X connect 25 0 5 0;
#X connect 26 0 19 0;
#X connect 26 1 24 1;
#X connect 26 2 23 0;
#X connect 26 3 7 0;
#X connect 26 4 25 0;
#X connect 27 0 9 1;
#X connect 28 0 8 1;
