#N canvas 216 30 1224 777 12;
#X obj 264 548 *~;
#X obj 339 548 *~;
#X obj 184 454 line~;
#X msg 184 429 \$1 10;
#X obj 184 9 inlet gbend-message;
#X msg 281 365 stop;
#X obj 571 104 hsl 162 19 0 1 0 0 empty empty empty -2 -10 0 12 #fcfcfc #000000 #000000 0 0;
#X msg 568 130 volume \$1;
#X obj 421 230 route 0 1;
#X obj 421 206 pack f f;
#X obj 420 168 == 0;
#X obj 368 150 f;
#X obj 368 175 t f f;
#X obj 451 259 t b f;
#X obj 406 259 t b f;
#X msg 406 365 stop;
#X obj 281 321 bng 19 250 50 0 empty empty empty 0 -10 0 12 #fcfcfc #000000 #000000;
#X msg 566 75 1;
#X floatatom 612 164 5 0 0 0 - - - 0;
#X msg 612 190 fadi \$1;
#X floatatom 675 165 5 0 0 0 - - - 0;
#X msg 675 191 fado \$1;
#X obj 562 25 loadbang;
#X msg 604 74 5000;
#X msg 647 73 7500;
#X msg 438 327 set \$1 \, bang;
#X msg 483 302 set \$1 \, bang;
#X obj 184 36 route volume stop set;
#X obj 328 365 t a a;
#X obj 579 225 t a;
#X msg 516 74 beg 0;
#X obj 298 444 list prepend all;
#X obj 298 467 list trim;
#X obj 340 412 list prepend 0;
#X obj 443 416 list prepend 1;
#X obj 217 583 jl/router~ 2 6;
#X text 478 485 < semitones transposition signal input;
#X floatatom 839 515 5 0 0 0 - - - 0;
#X obj 844 483 unpack f f;
#X floatatom 899 514 5 0 0 0 - - - 0;
#X obj 622 554 bng 19 250 50 0 empty empty empty 0 -10 0 12 #fcfcfc #000000 #000000;
#N canvas 391 120 450 551 randomize-speaker-outputs 0;
#X obj 192 185 random 6;
#X obj 114 187 random 5;
#X obj 163 251 <;
#X obj 192 210 t f f;
#X obj 178 280 == 0;
#X obj 104 353 +;
#X obj 124 153 t b b;
#X obj 153 396 pack f f;
#X obj 114 217 t f f;
#X obj 124 88 inlet;
#X obj 219 73 inlet max-rand-nb;
#X obj 214 120 t f f;
#X obj 183 148 - 1;
#X obj 140 442 outlet rand-pair-without-dupe;
#X connect 0 0 3 0;
#X connect 1 0 8 0;
#X connect 2 0 4 0;
#X connect 3 0 2 1;
#X connect 3 1 7 1;
#X connect 4 0 5 1;
#X connect 5 0 7 0;
#X connect 6 0 1 0;
#X connect 6 1 0 0;
#X connect 7 0 13 0;
#X connect 8 0 5 0;
#X connect 8 1 2 0;
#X connect 9 0 6 0;
#X connect 10 0 11 0;
#X connect 11 0 12 0;
#X connect 11 1 0 1;
#X connect 12 0 1 1;
#X restore 622 578 pd randomize-speaker-outputs;
#X floatatom 91 487 5 0 0 0 - - - 0;
#X msg 90 509 fade \$1;
#X obj 91 441 loadbang;
#X obj 604 393 loadbang;
#X obj 217 730 outlet~;
#X obj 241 708 outlet~;
#X obj 263 686 outlet~;
#X obj 284 664 outlet~;
#X obj 302 642 outlet~;
#X obj 320 620 outlet~;
#X obj 399 88 t b f b;
#X msg 604 265 pitch 0 \, loop 1 \, rvs 0 \, fade 5 \, interrupt 5 \, beg 0;
#X obj 465 450 sig~ 0;
#X obj 335 495 stereo-player \$1 \$2;
#X obj 646 634 jl/routerctrl 0 2 6;
#X msg 91 464 10;
#X msg 644 608 clear \, 0 \$1 1 \, 1 \$2 1 \, dump;
#X msg 666 532 clear \, 0 0 1 \, 1 1 1 \, dump;
#X msg 656 346 set 0;
#X obj 656 322 loadbang;
#X connect 0 0 35 1;
#X connect 1 0 35 2;
#X connect 2 0 0 0;
#X connect 2 0 1 0;
#X connect 3 0 2 0;
#X connect 4 0 27 0;
#X connect 5 0 33 0;
#X connect 5 0 55 0;
#X connect 6 0 7 0;
#X connect 7 0 29 0;
#X connect 7 0 28 0;
#X connect 8 0 14 0;
#X connect 8 1 13 0;
#X connect 9 0 8 0;
#X connect 10 0 11 1;
#X connect 11 0 12 0;
#X connect 12 0 9 0;
#X connect 12 1 10 0;
#X connect 13 0 5 0;
#X connect 13 1 26 0;
#X connect 14 0 15 0;
#X connect 14 1 25 0;
#X connect 15 0 34 0;
#X connect 16 0 5 0;
#X connect 16 0 15 0;
#X connect 17 0 6 0;
#X connect 18 0 19 0;
#X connect 19 0 29 0;
#X connect 20 0 21 0;
#X connect 21 0 29 0;
#X connect 22 0 17 0;
#X connect 22 0 23 0;
#X connect 22 0 24 0;
#X connect 22 0 30 0;
#X connect 22 0 53 0;
#X connect 23 0 18 0;
#X connect 24 0 20 0;
#X connect 25 0 33 0;
#X connect 26 0 34 0;
#X connect 26 0 55 0;
#X connect 27 0 3 0;
#X connect 27 1 16 0;
#X connect 27 2 52 0;
#X connect 27 3 28 0;
#X connect 28 0 31 0;
#X connect 28 0 55 0;
#X connect 30 0 29 0;
#X connect 31 0 32 0;
#X connect 35 0 46 0;
#X connect 35 1 47 0;
#X connect 35 2 48 0;
#X connect 35 3 49 0;
#X connect 35 4 50 0;
#X connect 35 5 51 0;
#X connect 38 0 37 0;
#X connect 38 1 39 0;
#X connect 40 0 41 0;
#X connect 41 0 38 0;
#X connect 41 0 58 0;
#X connect 42 0 43 0;
#X connect 43 0 35 0;
#X connect 44 0 57 0;
#X connect 45 0 59 0;
#X connect 52 1 26 0;
#X connect 52 2 40 0;
#X connect 53 0 28 0;
#X connect 54 0 55 1;
#X connect 55 0 0 1;
#X connect 55 1 1 1;
#X connect 56 0 35 0;
#X connect 57 0 42 0;
#X connect 58 0 56 0;
#X connect 59 0 56 0;
#X connect 60 0 55 0;
#X connect 61 0 60 0;
