#N canvas 183 39 721 737 12;
#X obj 158 289 f;
#X obj 187 289 + 1;
#X floatatom 219 316 5 0 0 0 - - - 0;
#X obj 86 448 soundfiler;
#X obj 86 396 pack s s s;
#X obj 86 172 t s b;
#X msg 86 422 read -resize \$1 \$2 \$3;
#X obj 153 497 * 0.001;
#X msg 153 473 \$1;
#X obj 86 533 /;
#X obj 158 315 t f f f;
#X obj 183 580 pack f f;
#X obj 183 628 unpack f f;
#X msg 183 604 \$1 \$2;
#X msg 216 180 -1;
#X msg 194 245 0;
#X obj 86 21 inlet;
#X obj 86 118 makefilename %s/*.wav;
#X obj 298 598 clone -s 0 stereo-soundbank-unit \$2 \$1;
#X obj 271 662 text define \$1;
#X obj 183 662 text set \$1;
#X obj 181 365 makefilename \$1-%d-R;
#X obj 158 340 makefilename \$1-%d-L;
#X obj 216 206 text delete \$1;
#X obj 86 69 t a b b;
#X obj 86 143 hcs/folder_list;
#X msg 328 567 vis \$1 1;
#X floatatom 328 543 5 0 0 0 - - - 0;
#X connect 0 0 1 0;
#X connect 0 0 10 0;
#X connect 1 0 0 1;
#X connect 3 0 9 0;
#X connect 3 1 8 0;
#X connect 4 0 6 0;
#X connect 5 0 4 0;
#X connect 5 1 0 0;
#X connect 6 0 3 0;
#X connect 7 0 9 1;
#X connect 8 0 7 0;
#X connect 9 0 11 0;
#X connect 10 0 22 0;
#X connect 10 1 21 0;
#X connect 10 2 2 0;
#X connect 10 2 11 1;
#X connect 11 0 13 0;
#X connect 12 0 20 0;
#X connect 12 1 20 1;
#X connect 13 0 12 0;
#X connect 14 0 23 0;
#X connect 15 0 0 1;
#X connect 16 0 24 0;
#X connect 17 0 25 0;
#X connect 21 0 4 2;
#X connect 22 0 4 1;
#X connect 24 0 17 0;
#X connect 24 1 15 0;
#X connect 24 2 14 0;
#X connect 25 0 5 0;
#X connect 26 0 18 0;
#X connect 27 0 26 0;
